<svg width="124" height="770" viewBox="0 0 124 770" fill="none" xmlns="http://www.w3.org/2000/svg">
<g clip-path="url(#clip0_54001_26336)">
<rect x="-331.064" y="357.966" width="410.494" height="439" fill="#FFC900"/>
<rect x="-331.064" y="-74.4895" width="410.494" height="439" fill="#FFC900"/>
<path fill-rule="evenodd" clip-rule="evenodd" d="M25.0324 46.1452L25.1066 46.7902L25.3292 47.4398L25.7014 48.0986L26.2248 48.7713L26.9015 49.4627L27.7343 50.1776L28.7268 50.9214L29.8828 51.6991L31.2067 52.5163L32.7032 53.3789L34.3774 54.2928L36.2345 55.2642L38.2797 56.2998L40.5181 57.4063L42.9543 58.5907L45.5921 59.86L48.4345 61.2213L51.4828 62.6817L54.7365 64.2481L58.1928 65.9267L61.8457 67.7233L65.6855 69.6427L69.6984 71.6881L73.8653 73.8612L78.1617 76.1617L82.5569 78.5863L87.013 81.1289L91.4856 83.7797L95.9232 86.5251L100.268 89.3471L104.455 92.2233L108.415 95.127L112.078 98.0275L115.369 100.89L118.218 103.678L120.558 106.351L122.33 108.871L123.483 111.2L123.983 113.301L123.806 115.144L122.947 116.703L121.417 117.958L119.243 118.899L116.467 119.521L113.143 119.828L109.335 119.832L105.117 119.551L100.563 119.008L95.7516 118.229L90.7572 117.246L85.6522 116.09L80.5025 114.792L75.3678 113.385L70.2996 111.898L65.3421 110.358L60.5312 108.792L55.8958 107.222L51.4578 105.667L47.2328 104.146L43.2313 102.671L39.4591 101.256L35.9183 99.9101L32.608 98.6417L29.5248 97.457L26.6636 96.3612L24.018 95.3582L21.5806 94.4512L19.3438 93.6428L17.2996 92.9351L15.4402 92.33L13.758 91.8294L12.2458 91.4353L10.8972 91.1501L9.70613 90.9765L8.6676 90.9176L7.77733 90.9777L7.03201 91.1614L6.42937 91.4748L5.96805 91.925L5.644 92.5163L5.45018 93.2502L5.38049 94.1288L5.43002 95.1554L5.59468 96.3341L5.87111 97.67L6.25659 99.1689L6.74875 100.837L7.34561 102.682L8.04524 104.712L8.84572 106.933L9.74495 109.354L10.7404 111.983L11.8289 114.826L13.0067 117.892L14.2687 121.184L15.6086 124.706L17.0185 128.46L18.4887 132.443L20.0072 136.651L21.5598 141.072L23.1295 145.693L24.6968 150.491L26.2393 155.438L27.7317 160.499L29.1465 165.63L30.4538 170.78L31.6226 175.891L32.6206 180.897L33.4164 185.726L33.9795 190.303L34.2824 194.551L34.3017 198.394L34.0189 201.759L33.4223 204.581L32.5072 206.804L31.2766 208.387L29.7415 209.3L27.9203 209.531L25.8384 209.085L23.5267 207.982L21.0204 206.258L18.3577 203.962L15.5778 201.151L12.7198 197.892L9.82108 194.256L6.9164 190.317L4.03694 186.145L1.20976 181.811L-1.54243 177.379L-4.20132 172.907L-6.75294 168.448L-9.18724 164.046L-11.4977 159.741L-13.6811 155.562L-15.7366 151.536L-17.6659 147.682L-19.4721 144.014L-21.16 140.542L-22.735 137.272L-24.2037 134.207L-25.5726 131.348L-26.849 128.694L-28.0398 126.242L-29.1522 123.988L-30.1932 121.928L-31.1696 120.056L-32.0878 118.367L-32.9542 116.857L-33.7749 115.52L-34.5555 114.35L-35.3018 113.345L-36.0188 112.5L-36.7119 111.81L-37.3859 111.275L-38.0456 110.891L-38.6958 110.656L-39.341 110.57L-39.9858 110.633L-40.6349 110.844L-41.2928 111.204L-41.9642 111.715L-42.6539 112.379L-43.3668 113.2L-44.108 114.179L-44.8829 115.322L-45.6968 116.632L-46.5555 118.115L-47.4651 119.775L-48.4317 121.617L-49.462 123.647L-50.5625 125.87L-51.7404 128.29L-53.0027 130.912L-54.3564 133.738L-55.8087 136.77L-57.3664 140.007L-59.0359 143.448L-60.8229 147.085L-62.7323 150.911L-64.7676 154.91L-66.9306 159.066L-69.221 163.353L-71.6359 167.742L-74.1694 172.194L-76.8121 176.668L-79.5505 181.11L-82.3671 185.464L-85.24 189.666L-88.1426 193.647L-91.0445 197.336L-93.9114 200.66L-96.7063 203.547L-99.3904 205.93L-101.924 207.748L-104.269 208.953L-106.39 209.505L-108.255 209.382L-109.837 208.577L-111.117 207.1L-112.082 204.976L-112.73 202.246L-113.062 198.963L-113.09 195.192L-112.83 191.004L-112.307 186.474L-111.546 181.68L-110.578 176.697L-109.435 171.599L-108.147 166.45L-106.748 161.312L-105.266 156.237L-103.729 151.269L-102.164 146.446L-100.594 141.795L-99.0372 137.341L-97.5122 133.099L-96.0335 129.079L-94.6133 125.289L-93.2617 121.729L-91.9868 118.401L-90.7953 115.3L-89.6922 112.421L-88.6817 109.758L-87.767 107.305L-86.9506 105.052L-86.2348 102.993L-85.6215 101.119L-85.1125 99.4231L-84.7099 97.8977L-84.4159 96.5362L-84.2332 95.3328L-84.1651 94.2823L-84.2155 93.3804L-84.3892 92.6236L-84.692 92.0097L-85.1311 91.5372L-85.7111 91.2025L-86.4336 90.9985L-87.3006 90.9191L-88.3152 90.9593L-89.4817 91.1149L-90.8049 91.3826L-92.2905 91.7594L-93.9452 92.2432L-95.7759 92.8318L-97.7901 93.5233L-99.9957 94.3158L-102.401 95.2073L-105.013 96.1952L-107.839 97.2764L-110.886 98.4473L-114.16 99.7028L-117.664 101.037L-121.4 102.441L-125.365 103.907L-129.555 105.422L-133.96 106.973L-138.565 108.542L-143.35 110.11L-148.286 111.655L-153.339 113.153L-158.467 114.575L-163.618 115.892L-168.734 117.073L-173.751 118.086L-178.597 118.899L-183.197 119.481L-187.474 119.806L-191.351 119.849L-194.757 119.59L-197.624 119.019L-199.897 118.129L-201.532 116.923L-202.499 115.412L-202.785 113.613L-202.392 111.551L-201.341 109.256L-199.665 106.764L-197.411 104.112L-194.639 101.34L-191.413 98.4868L-187.805 95.5901L-183.887 92.6847L-179.731 89.8022L-175.408 86.9699L-170.981 84.211L-166.51 81.5441L-162.048 78.9836L-157.641 76.5397L-153.326 74.2191L-149.137 72.0256L-145.098 69.9599L-141.23 68.0207L-137.546 66.2048L-134.058 64.5077L-130.772 62.9239L-127.691 61.4471L-124.816 60.0704L-122.145 58.787L-119.677 57.5896L-117.408 56.4711L-115.332 55.4247L-113.445 54.4435L-111.742 53.5208L-110.218 52.6505L-108.867 51.8264L-107.684 51.0428L-106.666 50.294L-105.808 49.5748L-105.107 48.88L-104.559 48.2047L-104.163 47.544L-103.917 46.8932L-103.819 46.2478L-103.869 45.6031L-104.068 44.9546L-104.417 44.2975L-104.916 43.6274L-105.568 42.9393L-106.376 42.2284L-107.343 41.4897L-108.472 40.7177L-109.769 39.9071L-111.238 39.0522L-112.883 38.1469L-114.711 37.185L-116.726 36.1601L-118.933 35.0654L-121.337 33.8939L-123.943 32.6386L-126.753 31.2924L-129.768 29.8482L-132.989 28.2992L-136.414 26.6388L-140.036 24.8613L-143.847 22.9618L-147.833 20.9367L-151.977 18.7839L-156.255 16.5035L-160.636 14.0984L-165.086 11.574L-169.559 8.93962L-174.006 6.20822L-178.369 3.39706L-182.586 0.527794L-186.587 -2.37354L-190.302 -5.2767L-193.657 -8.14774L-196.582 -10.9498L-199.007 -13.6441L-200.872 -16.1913L-202.127 -18.5529L-202.733 -20.6927L-202.664 -22.5786L-201.913 -24.184L-200.489 -25.4886L-198.415 -26.4797L-195.732 -27.1523L-192.491 -27.5092L-188.756 -27.5607L-184.598 -27.3236L-180.092 -26.8202L-175.317 -26.0774L-170.346 -25.1248L-165.254 -23.9939L-160.108 -22.7168L-154.967 -21.3249L-149.885 -19.8484L-144.907 -18.3156L-140.071 -16.7521L-135.406 -15.181L-130.935 -13.6227L-126.676 -12.0946L-122.638 -10.6117L-118.829 -9.18648L-115.251 -7.82906L-111.905 -6.54784L-108.785 -5.34946L-105.889 -4.23919L-103.21 -3.22119L-100.74 -2.29874L-98.4715 -1.47446L-96.3972 -0.750565L-94.5089 -0.128983L-92.7989 0.388374L-91.2602 0.79953L-89.8859 1.10225L-88.6701 1.29388L-87.6076 1.37125L-86.6939 1.33047L-85.9257 1.16681L-85.3005 0.874489L-84.8167 0.446564L-84.4713 -0.122223L-84.2572 -0.833282L-84.1681 -1.68867L-84.1989 -2.69143L-84.3455 -3.8456L-84.6043 -5.15609L-84.9726 -6.62862L-85.4479 -8.26958L-86.0282 -10.086L-86.7116 -12.0853L-87.4962 -14.2754L-88.3798 -16.6641L-89.3601 -19.2593L-90.4341 -22.0684L-91.598 -25.0981L-92.8469 -28.3537L-94.1749 -31.8392L-95.5743 -35.5562L-97.0356 -39.5033L-98.5473 -43.6757L-100.095 -48.064L-101.664 -52.654L-103.233 -57.4253L-104.781 -62.3508L-106.283 -67.3962L-107.712 -72.5195L-109.039 -77.6707L-110.232 -82.7922L-111.259 -87.8193L-112.089 -92.6815L-112.691 -97.3038L-113.037 -101.609L-113.103 -105.521L-112.869 -108.967L-112.323 -111.88L-111.459 -114.202L-110.278 -115.889L-108.79 -116.909L-107.013 -117.249L-104.971 -116.91L-102.693 -115.91L-100.216 -114.282L-97.5752 -112.073L-94.8113 -109.34L-91.9632 -106.148L-89.0686 -102.567L-86.1627 -98.671L-83.2773 -94.5317L-80.4401 -90.219L-77.6747 -85.7981L-74.9999 -81.3289L-72.4304 -76.8645L-69.9769 -72.4511L-67.6464 -68.1281L-65.4427 -63.9277L-63.3668 -59.8762L-61.4176 -55.9935L-59.5921 -52.295L-57.8857 -48.7911L-56.2931 -45.4886L-54.808 -42.391L-53.4236 -39.4995L-52.133 -36.813L-50.929 -34.329L-49.8046 -32.0438L-48.7527 -29.9528L-47.7665 -28.0513L-46.8394 -26.3339L-45.9651 -24.7954L-45.1376 -23.4307L-44.351 -22.235L-43.5996 -21.2039L-42.8782 -20.3332L-42.1817 -19.6195L-41.505 -19.0597L-40.8433 -18.6516L-40.1919 -18.3933L-39.5462 -18.2838L-38.9016 -18.3225L-38.2536 -18.5096L-37.5974 -18.8459L-36.9284 -19.333L-36.242 -19.9728L-35.5331 -20.7681L-34.7967 -21.7221L-34.0276 -22.8386L-33.2203 -24.122L-32.3691 -25.5768L-31.4681 -27.208L-30.5109 -29.021L-29.4913 -31.0208L-28.4023 -33.2126L-27.2372 -35.6011L-25.9889 -38.1905L-24.6502 -40.9838L-23.2141 -43.9829L-21.6736 -47.1877L-20.0224 -50.5961L-18.2544 -54.2027L-16.3647 -57.9989L-14.3497 -61.972L-12.2071 -66.1041L-9.93686 -70.3722L-7.54144 -74.7469L-5.02631 -79.1922L-2.40024 -83.6653L0.32402 -88.1164L3.12955 -92.4886L5.99509 -96.7193L8.89491 -100.74L11.7991 -104.481L14.6741 -107.867L17.483 -110.829L20.1874 -113.296L22.7477 -115.208L25.1254 -116.513L27.2841 -117.171L29.1913 -117.157L30.8199 -116.461L32.149 -115.089L33.1654 -113.066L33.8633 -110.429L34.2451 -107.23L34.3204 -103.532L34.1055 -99.4052L33.6224 -94.9246L32.8975 -90.1675L31.9605 -85.2101L30.8427 -80.1252L29.576 -74.9806L28.1922 -69.8373L26.7213 -64.7489L25.192 -59.7614L23.6301 -54.9126L22.0588 -50.2331L20.4988 -45.7462L18.9678 -41.4692L17.4808 -37.4136L16.0505 -33.5863L14.6874 -29.9903L13.3998 -26.6251L12.1946 -23.4881L11.0772 -20.5744L10.0517 -17.8779L9.12154 -15.3914L8.28937 -13.1074L7.55739 -11.018L6.9276 -9.1151L6.40187 -7.39123L5.98219 -5.83907L5.67075 -4.45191L5.47015 -3.22372L5.38356 -2.14916L5.41475 -1.22382L5.56844 -0.444115L5.85028 0.192467L6.26714 0.687416L6.82465 1.04358L7.52434 1.26793L8.36812 1.36678L9.35901 1.34533L10.5009 1.20786L11.7988 0.957848L13.2582 0.598198L14.8855 0.131325L16.6876 -0.440697L18.6721 -1.11594L20.8467 -1.89251L23.2193 -2.76835L25.7978 -3.74107L28.5896 -4.8077L31.6015 -5.96457L34.839 -7.20695L38.3061 -8.5289L42.0047 -9.9229L45.9335 -11.3797L50.0883 -12.8878L54.4599 -14.4337L59.0345 -16.001L63.7922 -17.5709L68.7066 -19.1214L73.7439 -20.6282L78.8627 -22.0642L84.0137 -23.4L89.1398 -24.6047L94.177 -25.6465L99.055 -26.4934L103.699 -27.1147L108.033 -27.4821L111.979 -27.571L115.464 -27.3618L118.422 -26.8408L120.793 -26.0018L122.531 -24.8459L123.606 -23.3821L124 -21.6272L123.715 -19.605L122.766 -17.3451L121.187 -14.8819L119.022 -12.253L116.328 -9.49751L113.17 -6.65468L109.618 -3.76244L105.744 -0.856216L101.622 2.03188L97.3201 4.87379L92.9056 7.64571L88.4382 10.3283L83.9716 12.9066L79.5527 15.3697L75.2212 17.7101L71.01 19.924L66.9457 22.0101L63.0491 23.9692L59.3354 25.8045L55.8157 27.5201L52.497 29.1216L49.3831 30.6151L46.4752 32.0072L43.7724 33.305L41.2724 34.5156L38.9715 35.6462L36.8653 36.7036L34.9488 37.6948L33.2169 38.6263L31.6644 39.5045L30.2861 40.3356L29.0771 41.1253L28.033 41.8792L27.1497 42.6028L26.4235 43.3012L25.8516 43.9793L25.4315 44.642L25.1613 45.294L25.04 45.94L25.0324 46.1452Z" fill="#23A094"/>
<path fill-rule="evenodd" clip-rule="evenodd" d="M-1.47189 228.811L-1.30682 229.651L-0.817322 230.501L-0.0205994 231.37L1.05363 232.266L2.36203 233.197L3.84647 234.165L5.43317 235.172L7.03305 236.212L8.54379 237.278L9.85394 238.357L10.8498 239.428L11.4247 240.472L11.4892 241.463L10.9816 242.377L9.8764 243.193L8.18872 243.895L5.97339 244.476L3.3197 244.934L0.341919 245.278L-2.83217 245.524L-6.07219 245.694L-9.25447 245.812L-12.268 245.907L-15.0172 246.006L-17.4217 246.139L-19.4137 246.333L-20.9334 246.62L-21.924 247.03L-22.3244 247.598L-22.0617 248.367L-21.0417 249.389L-19.1362 250.731L-16.1656 252.485L-11.8725 254.778L-7.20526 257.311L-13.365 255.881L-17.8477 254.966L-21.0306 254.474L-23.1748 254.34L-24.4646 254.524L-25.034 254.996L-24.9834 255.738L-24.3924 256.736L-23.329 257.977L-21.8568 259.449L-20.0411 261.134L-17.9541 263.011L-15.6777 265.047L-13.3058 267.202L-10.9428 269.422L-8.70085 271.647L-6.69327 273.808L-5.02591 275.834L-3.78777 277.661L-3.04173 279.233L-2.81799 280.511L-3.11125 281.479L-3.88239 282.141L-5.06404 282.521L-6.56917 282.661L-8.3006 282.614L-10.1598 282.441L-12.0543 282.202L-13.9023 281.956L-15.636 281.756L-17.2016 281.648L-18.5597 281.671L-19.6834 281.857L-20.5572 282.23L-21.1757 282.806L-21.5428 283.596L-21.6706 284.602L-21.5801 285.818L-21.301 287.231L-20.8723 288.814L-20.343 290.532L-19.7713 292.334L-19.2247 294.158L-18.777 295.93L-18.5051 297.566L-18.4833 298.979L-18.7769 300.085L-19.4353 300.809L-20.4858 301.099L-21.9292 300.927L-23.7388 300.296L-25.8626 299.241L-28.2292 297.825L-30.7547 296.129L-33.3511 294.251L-35.9333 292.291L-38.4248 290.346L-40.7606 288.508L-42.888 286.857L-44.7659 285.467L-46.3624 284.401L-47.6516 283.72L-48.6104 283.486L-49.2141 283.766L-49.4324 284.642L-49.2242 286.221L-48.5311 288.645L-47.2686 292.111L-45.3129 296.902L-44.5867 299.754L-48.1861 295.004L-50.882 291.659L-52.8877 289.426L-54.3527 288.104L-55.3847 287.55L-56.0638 287.665L-56.4517 288.371L-56.5986 289.611L-56.5478 291.331L-56.3395 293.481L-56.0131 296.004L-55.6095 298.836L-55.1717 301.895L-54.7452 305.087L-54.3767 308.302L-54.112 311.419L-53.993 314.314L-54.0541 316.865L-54.3191 318.97L-54.7981 320.552L-55.4869 321.568L-56.3678 322.017L-57.4116 321.933L-58.5816 321.384L-59.8375 320.462L-61.1396 319.271L-62.4518 317.922L-63.7436 316.518L-64.9914 315.156L-66.1785 313.917L-67.295 312.868L-68.3363 312.062L-69.3029 311.537L-70.1991 311.32L-71.0322 311.424L-71.8119 311.854L-72.5494 312.6L-73.2574 313.643L-73.9496 314.951L-74.6397 316.476L-75.3413 318.155L-76.0673 319.911L-76.8285 321.649L-77.6331 323.262L-78.4856 324.637L-79.3858 325.659L-80.3286 326.225L-81.3037 326.251L-82.2968 325.684L-83.2905 324.512L-84.2667 322.762L-85.2081 320.5L-86.1003 317.825L-86.9337 314.858L-87.7033 311.731L-88.4096 308.573L-89.0579 305.508L-89.6573 302.643L-90.2205 300.073L-90.7627 297.876L-91.3013 296.12L-91.8558 294.869L-92.4485 294.184L-93.105 294.135L-93.856 294.809L-94.7395 296.319L-95.8049 298.821L-97.1183 302.535L-98.7713 307.777L-99.6359 308.055L-99.3818 302.447L-99.3331 298.417L-99.4671 295.629L-99.7701 293.848L-100.235 292.907L-100.858 292.685L-101.639 293.087L-102.578 294.04L-103.674 295.476L-104.925 297.329L-106.324 299.532L-107.858 302.004L-109.509 304.654L-111.248 307.379L-113.039 310.062L-114.838 312.58L-116.596 314.811L-118.262 316.645L-119.789 317.99L-121.136 318.789L-122.277 319.019L-123.199 318.696L-123.905 317.872L-124.414 316.628L-124.754 315.062L-124.966 313.281L-125.091 311.391L-125.174 309.491L-125.257 307.665L-125.38 305.985L-125.578 304.505L-125.878 303.265L-126.307 302.293L-126.883 301.604L-127.619 301.202L-128.524 301.082L-129.601 301.227L-130.844 301.614L-132.242 302.206L-133.774 302.956L-135.407 303.805L-137.099 304.683L-138.795 305.508L-140.432 306.194L-141.939 306.649L-143.242 306.789L-144.272 306.539L-144.97 305.846L-145.295 304.686L-145.23 303.066L-144.783 301.023L-143.989 298.625L-142.904 295.96L-141.601 293.128L-140.161 290.233L-138.669 287.374L-137.206 284.638L-135.849 282.101L-134.666 279.822L-133.717 277.851L-133.06 276.228L-132.75 274.987L-132.844 274.161L-133.409 273.79L-134.528 273.922L-136.309 274.623L-138.898 275.988L-142.499 278.15L-147.407 281.308L-146.402 279.42L-142.843 275.511L-140.406 272.627L-138.872 270.54L-138.091 269.09L-137.957 268.161L-138.393 267.665L-139.342 267.536L-140.757 267.716L-142.595 268.156L-144.812 268.808L-147.356 269.622L-150.165 270.546L-153.162 271.52L-156.256 272.482L-159.343 273.367L-162.308 274.108L-165.036 274.645L-167.419 274.927L-169.366 274.921L-170.815 274.609L-171.738 273.997L-172.142 273.108L-172.069 271.983L-171.589 270.673L-170.792 269.234L-169.776 267.725L-168.643 266.197L-167.487 264.696L-166.396 263.258L-165.44 261.91L-164.68 260.671L-164.162 259.551L-163.919 258.554L-163.973 257.678L-164.337 256.918L-165.011 256.262L-165.984 255.698L-167.235 255.207L-168.728 254.77L-170.415 254.364L-172.23 253.964L-174.092 253.543L-175.906 253.074L-177.563 252.531L-178.951 251.892L-179.96 251.139L-180.493 250.262L-180.475 249.26L-179.867 248.142L-178.666 246.925L-176.912 245.636L-174.68 244.304L-172.075 242.96L-169.22 241.634L-166.243 240.352L-163.273 239.134L-160.425 237.993L-157.804 236.938L-155.498 235.969L-153.583 235.085L-152.127 234.277L-151.194 233.538L-150.851 232.855L-151.177 232.214L-152.271 231.599L-154.267 230.991L-157.347 230.368L-161.772 229.698L-167.918 228.943L-163.52 228.153L-158.595 227.462L-155.119 226.827L-152.802 226.217L-151.437 225.606L-150.878 224.975L-151.017 224.307L-151.77 223.587L-153.066 222.803L-154.842 221.944L-157.031 221.002L-159.561 219.975L-162.347 218.861L-165.291 217.666L-168.279 216.402L-171.187 215.088L-173.886 213.747L-176.249 212.407L-178.165 211.101L-179.548 209.859L-180.346 208.707L-180.549 207.667L-180.185 206.749L-179.319 205.957L-178.04 205.283L-176.456 204.712L-174.68 204.222L-172.823 203.789L-170.983 203.385L-169.248 202.984L-167.686 202.559L-166.353 202.088L-165.289 201.549L-164.518 200.924L-164.055 200.198L-163.903 199.36L-164.053 198.403L-164.487 197.322L-165.174 196.119L-166.073 194.804L-167.129 193.392L-168.273 191.908L-169.423 190.384L-170.487 188.864L-171.365 187.397L-171.957 186.04L-172.168 184.85L-171.922 183.88L-171.167 183.176L-169.884 182.767L-168.09 182.664L-165.837 182.858L-163.208 183.319L-160.306 184.001L-157.246 184.847L-154.142 185.791L-151.103 186.769L-148.226 187.715L-145.59 188.57L-143.263 189.279L-141.299 189.792L-139.744 190.06L-138.642 190.035L-138.037 189.663L-137.982 188.88L-138.547 187.607L-139.828 185.738L-141.957 183.128L-145.13 179.576L-149.309 175.055L-143.903 178.586L-139.923 181.04L-137.037 182.642L-135.017 183.543L-133.701 183.848L-132.969 183.631L-132.733 182.945L-132.921 181.833L-133.474 180.328L-134.336 178.464L-135.451 176.278L-136.759 173.817L-138.196 171.137L-139.687 168.308L-141.153 165.415L-142.509 162.552L-143.672 159.822L-144.566 157.329L-145.128 155.164L-145.317 153.404L-145.115 152.095L-144.533 151.255L-143.603 150.868L-142.38 150.89L-140.93 151.254L-139.327 151.876L-137.642 152.667L-135.942 153.537L-134.285 154.404L-132.717 155.192L-131.274 155.84L-129.979 156.296L-128.848 156.522L-127.888 156.489L-127.099 156.177L-126.474 155.58L-126 154.697L-125.661 153.54L-125.434 152.133L-125.29 150.511L-125.198 148.725L-125.12 146.839L-125.013 144.936L-124.834 143.109L-124.539 141.463L-124.088 140.105L-123.447 139.138L-122.595 138.648L-121.523 138.699L-120.239 139.317L-118.766 140.493L-117.139 142.179L-115.405 144.295L-113.614 146.734L-111.815 149.378L-110.055 152.103L-108.373 154.789L-106.799 157.328L-105.355 159.626L-104.056 161.598L-102.91 163.175L-101.921 164.288L-101.09 164.874L-100.416 164.859L-99.9008 164.159L-99.5457 162.661L-99.3568 160.216L-99.3453 156.612L-99.5308 151.551L-99.3892 147.785L-97.6026 153.602L-96.1926 157.763L-95.0564 160.623L-94.1209 162.43L-93.3323 163.356L-92.6494 163.527L-92.0393 163.036L-91.4752 161.958L-90.9338 160.357L-90.3947 158.293L-89.84 155.834L-89.2536 153.054L-88.622 150.041L-87.935 146.9L-87.1858 143.749L-86.3725 140.717L-85.4982 137.935L-84.5711 135.53L-83.6043 133.607L-82.6141 132.246L-81.6189 131.486L-80.6363 131.328L-79.6819 131.729L-78.7673 132.616L-77.8994 133.891L-77.0798 135.441L-76.3055 137.151L-75.5694 138.912L-74.8613 140.625L-74.169 142.206L-73.479 143.589L-72.7775 144.721L-72.0508 145.565L-71.2859 146.096L-70.4709 146.305L-69.5957 146.189L-68.6521 145.76L-67.6349 145.039L-66.5421 144.063L-65.3767 142.878L-64.1468 141.546L-62.8668 140.147L-61.5581 138.769L-60.2491 137.516L-58.9742 136.497L-57.7725 135.818L-56.6842 135.577L-55.7479 135.85L-54.9953 136.684L-54.4483 138.089L-54.1156 140.034L-53.9915 142.453L-54.0564 145.251L-54.279 148.311L-54.6193 151.508L-55.0324 154.72L-55.4716 157.833L-55.8909 160.746L-56.2465 163.375L-56.4967 165.651L-56.6019 167.513L-56.5225 168.911L-56.2164 169.794L-55.6361 170.104L-54.7242 169.773L-53.4072 168.709L-51.5876 166.784L-49.1311 163.82L-45.8478 159.556L-44.5167 158.855L-46.7282 164.145L-48.1957 167.998L-49.0595 170.729L-49.4148 172.559L-49.3272 173.647L-48.8425 174.107L-47.994 174.028L-46.8075 173.483L-45.3063 172.533L-43.5149 171.239L-41.463 169.665L-39.1885 167.878L-36.7401 165.957L-34.179 163.991L-31.5782 162.076L-29.0206 160.312L-26.5939 158.797L-24.3842 157.619L-22.4679 156.848L-20.9037 156.528L-19.7268 156.672L-18.9452 157.263L-18.5398 158.254L-18.4676 159.578L-18.6677 161.152L-19.0677 162.89L-19.591 164.706L-20.1624 166.523L-20.7121 168.274L-21.1786 169.904L-21.51 171.374L-21.6643 172.655L-21.6086 173.729L-21.3195 174.588L-20.7819 175.231L-19.9893 175.667L-18.944 175.911L-17.6583 175.983L-16.1551 175.913L-14.4698 175.738L-12.6515 175.501L-10.7636 175.253L-8.88353 175.052L-7.10089 174.959L-5.51288 175.033L-4.21806 175.331L-3.30774 175.9L-2.85652 176.769L-2.91331 177.949L-3.4946 179.431L-4.58136 181.182L-6.12056 183.151L-8.03065 185.277L-10.2101 187.489L-12.5469 189.718L-14.9278 191.899L-17.2453 193.978L-19.4021 195.91L-21.3125 197.659L-22.9014 199.201L-24.1019 200.517L-24.8504 201.593L-25.081 202.418L-24.7188 202.978L-23.6712 203.256L-21.8163 203.228L-18.9883 202.855L-14.954 202.084L-9.37877 200.83L-10.1707 201.972L-14.9567 204.473L-18.316 206.383L-20.5382 207.845L-21.8243 208.96L-22.3167 209.803L-22.1188 210.431L-21.3092 210.887L-19.9517 211.209L-18.1039 211.43L-15.824 211.579L-13.1765 211.686L-10.2376 211.779L-7.0977 211.886L-3.86316 212.037L-0.654083 212.256L2.40044 212.567L5.17062 212.988L7.53668 213.529L9.40021 214.193L10.6945 214.974L11.3915 215.859L11.5042 216.828L11.0834 217.857L10.2106 218.923L8.98834 220.001L7.52913 221.073L5.94598 222.123L4.34474 223.141L2.81897 224.121L1.44745 225.063L0.293243 225.97L-0.595734 226.847L-1.18553 227.702L-1.45509 228.544L-1.47189 228.811Z" fill="#FF90E8"/>
<path fill-rule="evenodd" clip-rule="evenodd" d="M21.8117 48.9863L21.7797 49.6245L21.6842 50.261L21.5254 50.8939L21.3042 51.5215L21.0217 52.1421L20.6793 52.7541L20.2786 53.3559L19.8216 53.946L19.3105 54.523L18.7476 55.0857L18.1354 55.6327L17.4769 56.1631L16.7749 56.6759L16.0324 57.1703L15.2525 57.6456L14.4386 58.1012L13.5937 58.5367L12.7213 58.9517L11.8245 59.346L10.9066 59.7197L9.97087 60.0726L9.02038 60.405L8.0582 60.7171L7.0873 61.0093L6.11053 61.2819L5.13065 61.5355L4.15021 61.7706L3.17171 61.9879L2.19748 62.1882L1.22966 62.372L0.270287 62.5404L-0.678772 62.6939L-1.61578 62.8336L-2.53919 62.9602L-3.44756 63.0747L-4.33961 63.1779L-5.2142 63.2708L-6.0703 63.3542L-6.90704 63.4291L-7.72364 63.4962L-8.51946 63.5566L-9.29394 63.6111L-10.0466 63.6605L-10.7771 63.7056L-11.4852 63.7473L-12.1707 63.7864L-12.8334 63.8237L-13.4733 63.8599L-14.0903 63.8959L-14.6846 63.9322L-15.2561 63.9697L-15.805 64.0091L-16.3314 64.0511L-16.8356 64.0963L-17.3176 64.1455L-17.7778 64.1993L-18.2162 64.2584L-18.6333 64.3235L-19.0291 64.3953L-19.4039 64.4745L-19.7579 64.5617L-20.0914 64.6577L-20.4045 64.7632L-20.6974 64.8789L-20.9703 65.0058L-21.2233 65.1445L-21.4566 65.2959L-21.6701 65.461L-21.864 65.6407L-22.0382 65.836L-22.1929 66.048L-22.3278 66.2778L-22.4429 66.5267L-22.538 66.796L-22.6129 67.0872L-22.6674 67.4018L-22.701 67.7415L-22.7135 68.1082L-22.7043 68.5038L-22.6728 68.9305L-22.6185 69.3908L-22.5405 69.8873L-22.438 70.4229L-22.3101 71.0008L-22.1557 71.6246L-21.9735 72.2981L-21.7621 73.0257L-21.52 73.8122L-21.2454 74.6629L-20.9363 75.584L-20.5906 76.582L-20.2057 77.6644L-19.7788 78.8397L-19.3069 80.1172L-18.7864 81.5078L-18.2134 83.0233L-17.5835 84.6775L-16.8916 86.4859L-16.132 88.4662L-15.2984 90.6384L-14.3836 93.0257L-13.3793 95.6545L-12.276 98.5555L-11.0632 101.764L-10.7972 103.457L-13.0712 100.684L-15.1215 98.1725L-16.975 95.8939L-18.6548 93.8235L-20.181 91.9397L-21.5711 90.2234L-22.8402 88.6583L-24.0014 87.2298L-25.0665 85.925L-26.0454 84.7327L-26.9472 83.6431L-27.7798 82.6471L-28.5501 81.737L-29.2644 80.9059L-29.9281 80.1476L-30.5462 79.4564L-31.1231 78.8275L-31.6628 78.2565L-32.1687 77.7394L-32.6441 77.2727L-33.0919 76.8532L-33.5148 76.478L-33.915 76.1446L-34.2948 75.8507L-34.6562 75.5942L-35.0009 75.3733L-35.3307 75.1863L-35.6472 75.0318L-35.9517 74.9084L-36.2456 74.8149L-36.5301 74.7502L-36.8065 74.7134L-37.0757 74.7037L-37.339 74.7203L-37.5972 74.7625L-37.8512 74.8297L-38.1021 74.9215L-38.3506 75.0373L-38.5977 75.1767L-38.844 75.3395L-39.0904 75.5253L-39.3377 75.7338L-39.5867 75.9648L-39.8379 76.218L-40.0923 76.4934L-40.3505 76.7907L-40.6132 77.1098L-40.8811 77.4505L-41.1549 77.8127L-41.4354 78.1963L-41.7232 78.601L-42.019 79.0267L-42.3236 79.4733L-42.6375 79.9405L-42.9614 80.4281L-43.2961 80.9357L-43.6422 81.4632L-44.0004 82.0101L-44.3712 82.576L-44.7553 83.1603L-45.1534 83.7627L-45.566 84.3825L-45.9936 85.0189L-46.4368 85.6712L-46.896 86.3385L-47.3718 87.0198L-47.8646 87.7142L-48.3746 88.4203L-48.9022 89.1371L-49.4476 89.863L-50.0111 90.5965L-50.5926 91.336L-51.1922 92.0798L-51.8097 92.8261L-52.4451 93.5728L-53.0981 94.3178L-53.7682 95.059L-54.4549 95.7939L-55.1576 96.5203L-55.8757 97.2356L-56.6081 97.9372L-57.3539 98.6225L-58.112 99.2887L-58.8812 99.9331L-59.6599 100.553L-60.4468 101.145L-61.2401 101.707L-62.0382 102.237L-62.8391 102.73L-63.6409 103.186L-64.4415 103.6L-65.2387 103.971L-66.0305 104.297L-66.8145 104.575L-67.5884 104.804L-68.3498 104.981L-69.0966 105.106L-69.8263 105.176L-70.5367 105.191L-71.2256 105.15L-71.8907 105.053L-72.5302 104.899L-73.1419 104.688L-73.7241 104.421L-74.2751 104.098L-74.7934 103.721L-75.2775 103.29L-75.7263 102.807L-76.1388 102.274L-76.5141 101.692L-76.8517 101.064L-77.1511 100.391L-77.4121 99.6777L-77.6347 98.9251L-77.8191 98.1364L-77.9657 97.3145L-78.0749 96.4624L-78.1476 95.5832L-78.1847 94.6798L-78.1871 93.7554L-78.1561 92.813L-78.0929 91.8555L-77.9991 90.8861L-77.876 89.9075L-77.7254 88.9226L-77.5489 87.934L-77.3482 86.9444L-77.125 85.9561L-76.8812 84.9716L-76.6186 83.9929L-76.3389 83.0222L-76.044 82.0613L-75.7357 81.1119L-75.4156 80.1756L-75.0856 79.2538L-74.7472 78.3478L-74.4021 77.4587L-74.0518 76.5875L-73.6979 75.7352L-73.3418 74.9023L-72.9849 74.0894L-72.6285 73.2971L-72.2738 72.5258L-71.922 71.7756L-71.5743 71.0468L-71.2316 70.3394L-70.8951 69.6535L-70.5656 68.9889L-70.2439 68.3456L-69.931 67.7232L-69.6275 67.1217L-69.3342 66.5405L-69.0519 65.9795L-68.781 65.4381L-68.5222 64.9161L-68.2761 64.4129L-68.0433 63.9281L-67.8242 63.4612L-67.6193 63.0116L-67.4292 62.579L-67.2543 62.1627L-67.0951 61.7622L-66.9521 61.3769L-66.8258 61.0065L-66.7166 60.6502L-66.6251 60.3076L-66.5517 59.9781L-66.4971 59.6611L-66.4618 59.3563L-66.4464 59.0629L-66.4517 58.7805L-66.4783 58.5086L-66.527 58.2467L-66.5986 57.9941L-66.6941 57.7505L-66.8144 57.5152L-66.9607 57.2878L-67.1341 57.0677L-67.3358 56.8544L-67.5675 56.6474L-67.8305 56.4461L-68.1266 56.2499L-68.4578 56.0582L-68.8261 55.8706L-69.2338 55.6862L-69.6834 55.5045L-70.1778 55.3248L-70.7202 55.1464L-71.3138 54.9683L-71.9626 54.7898L-72.6708 54.61L-73.4432 54.4278L-74.285 54.2422L-75.202 54.0518L-76.2009 53.8554L-77.289 53.6513L-78.4746 53.438L-79.7668 53.2135L-81.1762 52.9756L-82.7145 52.7219L-84.3949 52.4496L-86.2326 52.1553L-88.2446 51.8355L-90.4505 51.486L-92.8726 51.1016L-95.5362 50.6768L-98.4707 50.2049L-101.71 49.678L-105.292 49.087L-102.812 48.4753L-99.4676 47.9291L-96.44 47.4406L-93.6935 47.0015L-91.1974 46.605L-88.9252 46.2449L-86.8537 45.9161L-84.9624 45.6141L-83.2336 45.3352L-81.6516 45.0759L-80.2025 44.8332L-78.8742 44.6047L-77.6557 44.388L-76.5375 44.1812L-75.511 43.9826L-74.5686 43.7904L-73.7035 43.6034L-72.9097 43.4202L-72.1815 43.2398L-71.5143 43.061L-70.9035 42.8829L-70.3452 42.7046L-69.8359 42.5254L-69.3723 42.3444L-68.9515 42.161L-68.571 41.9745L-68.2282 41.7842L-67.9211 41.5895L-67.6477 41.3899L-67.4063 41.1847L-67.1952 40.9735L-67.0129 40.7556L-66.8582 40.5306L-66.7297 40.2979L-66.6264 40.0569L-66.5473 39.8073L-66.4914 39.5484L-66.4578 39.2797L-66.4459 39.0007L-66.4547 38.7109L-66.4837 38.4098L-66.5322 38.0968L-66.5997 37.7713L-66.6855 37.4329L-66.7891 37.0811L-66.9101 36.7152L-67.0478 36.3347L-67.2019 35.9391L-67.3718 35.5279L-67.5571 35.1005L-67.7573 34.6564L-67.972 34.1951L-68.2005 33.716L-68.4424 33.2187L-68.6972 32.7028L-68.9643 32.1676L-69.2431 31.6129L-69.533 31.0382L-69.8333 30.4431L-70.1433 29.8274L-70.4622 29.1908L-70.7893 28.533L-71.1237 27.8539L-71.4645 27.1533L-71.8107 26.4314L-72.1613 25.688L-72.5152 24.9234L-72.8712 24.1377L-73.2281 23.3314L-73.5846 22.5048L-73.9394 21.6586L-74.291 20.7933L-74.6379 19.9098L-74.9786 19.0091L-75.3115 18.0922L-75.6349 17.1604L-75.9472 16.215L-76.2466 15.2576L-76.5313 14.2897L-76.7995 13.3134L-77.0495 12.3305L-77.2794 11.3432L-77.4875 10.3538L-77.6719 9.36457L-77.831 8.37819L-77.963 7.39728L-78.0663 6.42461L-78.1394 5.46304L-78.1808 4.51551L-78.1891 3.58502L-78.1633 2.67461L-78.102 1.78735L-78.0045 0.926291L-77.8699 0.09448L-77.6976 -0.705096L-77.4872 -1.46952L-77.2384 -2.19596L-76.9512 -2.88172L-76.6258 -3.52424L-76.2624 -4.12113L-75.8617 -4.67019L-75.4243 -5.16941L-74.9514 -5.61704L-74.4438 -6.01155L-73.9031 -6.35168L-73.3307 -6.63642L-72.7281 -6.86506L-72.0973 -7.03716L-71.4401 -7.15256L-70.7586 -7.21141L-70.0548 -7.21411L-69.331 -7.16136L-68.5894 -7.0541L-67.8324 -6.89356L-67.0622 -6.68118L-66.2812 -6.41863L-65.4916 -6.1078L-64.6959 -5.75075L-63.8961 -5.34973L-63.0945 -4.90711L-62.2931 -4.42539L-61.4939 -3.90719L-60.6989 -3.35518L-59.9098 -2.77211L-59.1282 -2.16076L-58.3559 -1.52391L-57.5941 -0.864355L-56.8443 -0.18487L-56.1075 0.511818L-55.3847 1.22303L-54.677 1.94616L-53.9851 2.67867L-53.3097 3.41811L-52.6512 4.16215L-52.0102 4.90854L-51.3869 5.65514L-50.7816 6.39994L-50.1943 7.14105L-49.6252 7.87667L-49.074 8.60515L-48.5407 9.32495L-48.0251 10.0346L-47.5269 10.7329L-47.0458 11.4185L-46.5813 12.0904L-46.133 12.7476L-45.7005 13.3891L-45.2832 14.0142L-44.8806 14.6222L-44.4921 15.2124L-44.1171 15.7842L-43.755 16.3372L-43.4051 16.8709L-43.0668 17.3849L-42.7395 17.8789L-42.4225 18.3526L-42.1151 18.8058L-41.8165 19.2382L-41.5263 19.6496L-41.2435 20.0399L-40.9676 20.409L-40.6979 20.7565L-40.4336 21.0825L-40.1741 21.3868L-39.9186 21.6692L-39.6664 21.9295L-39.4168 22.1676L-39.1691 22.3833L-38.9225 22.5763L-38.6762 22.7464L-38.4295 22.8934L-38.1815 23.0168L-37.9314 23.1162L-37.6785 23.1913L-37.4217 23.2415L-37.1602 23.2663L-36.893 23.2651L-36.619 23.237L-36.3372 23.1813L-36.0464 23.0971L-35.7454 22.9834L-35.4329 22.8389L-35.1075 22.6624L-34.7677 22.4525L-34.4118 22.2075L-34.0381 21.9258L-33.6446 21.6052L-33.2292 21.2436L-32.7896 20.8384L-32.3233 20.3871L-31.8274 19.8864L-31.2989 19.3329L-30.7342 18.723L-30.1297 18.0522L-29.481 17.3158L-28.7834 16.5085L-28.0316 15.6243L-27.2196 14.6565L-26.3406 13.5976L-25.3872 12.439L-24.3506 11.1712L-23.2212 9.78342L-21.9878 8.26329L-20.6378 6.59689L-19.1567 4.76836L-17.5279 2.7596L-15.7321 0.549869L-13.7472 -1.8846L-11.5477 -4.5712L-10.6519 -4.88426L-11.9022 -1.56971L-13.0391 1.42509L-14.0738 4.13709L-15.0162 6.59826L-15.8749 8.83632L-16.6573 10.8754L-17.3701 12.7365L-18.0192 14.438L-18.6098 15.9962L-19.1466 17.4252L-19.6336 18.7375L-20.0744 19.9443L-20.4723 21.0553L-20.8303 22.0793L-21.1508 23.0241L-21.4361 23.8966L-21.6884 24.703L-21.9094 25.4488L-22.1007 26.139L-22.2639 26.7782L-22.4001 27.3703L-22.5106 27.919L-22.5962 28.4276L-22.658 28.8991L-22.6967 29.3363L-22.7129 29.7416L-22.7073 30.1172L-22.6804 30.4653L-22.6325 30.7877L-22.564 31.0862L-22.4753 31.3623L-22.3666 31.6176L-22.238 31.8533L-22.0896 32.0709L-21.9216 32.2714L-21.734 32.4559L-21.5267 32.6255L-21.2998 32.7812L-21.0531 32.9239L-20.7865 33.0544L-20.5 33.1736L-20.1934 33.2823L-19.8664 33.3813L-19.5189 33.4712L-19.1507 33.5528L-18.7616 33.6269L-18.3514 33.694L-17.9198 33.755L-17.4665 33.8104L-16.9915 33.861L-16.4944 33.9074L-15.9751 33.9503L-15.4334 33.9905L-14.8691 34.0285L-14.2821 34.0652L-13.6723 34.1011L-13.0397 34.1372L-12.3843 34.1741L-11.706 34.2125L-11.0051 34.2533L-10.2817 34.2973L-9.53607 34.3452L-8.76849 34.398L-7.97942 34.4564L-7.16937 34.5213L-6.33897 34.5936L-5.48894 34.6742L-4.62014 34.764L-3.73353 34.8638L-2.83024 34.9746L-1.91146 35.0972L-0.978622 35.2327L-0.033226 35.3817L0.92305 35.5452L1.88839 35.724L2.86082 35.919L3.83821 36.1308L4.81828 36.3602L5.79862 36.6078L6.77667 36.8743L7.74975 37.1602L8.71502 37.4659L9.66956 37.7918L10.6103 38.1382L11.5343 38.5052L12.4381 38.893L13.3187 39.3014L14.1727 39.7304L14.9968 40.1796L15.7879 40.6487L16.5426 41.1371L17.2579 41.6441L17.9306 42.169L18.5578 42.7109L19.1367 43.2687L19.6646 43.8412L20.1391 44.4273L20.5579 45.0255L20.9191 45.6344L21.2208 46.2525L21.4617 46.8781L21.6404 47.5095L21.7562 48.145L21.8084 48.7829L21.8117 48.9863Z" fill="#B23386"/>
<path fill-rule="evenodd" clip-rule="evenodd" d="M25.0324 478.601L25.1066 479.246L25.3292 479.896L25.7014 480.555L26.2248 481.227L26.9015 481.919L27.7343 482.634L28.7268 483.377L29.8828 484.155L31.2067 484.972L32.7032 485.835L34.3774 486.749L36.2345 487.72L38.2797 488.756L40.5181 489.862L42.9543 491.047L45.5921 492.316L48.4345 493.677L51.4828 495.138L54.7365 496.704L58.1928 498.383L61.8457 500.179L65.6855 502.099L69.6984 504.144L73.8653 506.317L78.1617 508.618L82.5569 511.042L87.013 513.585L91.4856 516.236L95.9232 518.981L100.268 521.803L104.455 524.679L108.415 527.583L112.078 530.483L115.369 533.346L118.218 536.133L120.558 538.807L122.33 541.327L123.483 543.656L123.983 545.757L123.806 547.6L122.947 549.159L121.417 550.414L119.243 551.355L116.467 551.976L113.143 552.284L109.335 552.288L105.117 552.007L100.563 551.464L95.7516 550.685L90.7572 549.702L85.6522 548.546L80.5025 547.248L75.3678 545.841L70.2996 544.354L65.3421 542.814L60.5312 541.248L55.8958 539.678L51.4578 538.123L47.2328 536.601L43.2313 535.127L39.4591 533.712L35.9183 532.366L32.608 531.098L29.5248 529.913L26.6636 528.817L24.018 527.814L21.5806 526.907L19.3438 526.099L17.2996 525.391L15.4402 524.786L13.758 524.285L12.2458 523.891L10.8972 523.606L9.70613 523.432L8.6676 523.374L7.77733 523.434L7.03201 523.617L6.42937 523.931L5.96805 524.381L5.644 524.972L5.45018 525.706L5.38049 526.585L5.43002 527.611L5.59468 528.79L5.87111 530.126L6.25659 531.625L6.74875 533.293L7.34561 535.138L8.04524 537.167L8.84572 539.389L9.74495 541.81L10.7404 544.439L11.8289 547.282L13.0067 550.348L14.2687 553.64L15.6086 557.162L17.0185 560.916L18.4887 564.899L20.0072 569.107L21.5598 573.528L23.1295 578.149L24.6968 582.947L26.2393 587.894L27.7317 592.955L29.1465 598.086L30.4538 603.236L31.6226 608.347L32.6206 613.353L33.4164 618.182L33.9795 622.759L34.2824 627.007L34.3017 630.85L34.0189 634.215L33.4223 637.037L32.5072 639.26L31.2766 640.843L29.7415 641.755L27.9203 641.987L25.8384 641.541L23.5267 640.438L21.0204 638.714L18.3577 636.418L15.5778 633.607L12.7198 630.348L9.82108 626.712L6.9164 622.773L4.03694 618.601L1.20976 614.267L-1.54243 609.834L-4.20132 605.363L-6.75294 600.903L-9.18724 596.502L-11.4977 592.197L-13.6811 588.018L-15.7366 583.992L-17.6659 580.138L-19.4721 576.47L-21.16 572.998L-22.735 569.728L-24.2037 566.663L-25.5726 563.804L-26.849 561.15L-28.0398 558.698L-29.1522 556.444L-30.1932 554.384L-31.1696 552.512L-32.0878 550.823L-32.9542 549.313L-33.7749 547.975L-34.5555 546.806L-35.3018 545.801L-36.0188 544.955L-36.7119 544.266L-37.3859 543.731L-38.0456 543.347L-38.6958 543.112L-39.341 543.026L-39.9858 543.089L-40.6349 543.299L-41.2928 543.66L-41.9642 544.171L-42.6539 544.835L-43.3668 545.656L-44.108 546.635L-44.8829 547.778L-45.6968 549.088L-46.5555 550.571L-47.4651 552.231L-48.4317 554.073L-49.462 556.103L-50.5625 558.326L-51.7404 560.746L-53.0027 563.368L-54.3564 566.194L-55.8087 569.226L-57.3664 572.463L-59.0359 575.904L-60.8229 579.541L-62.7323 583.367L-64.7676 587.366L-66.9306 591.522L-69.221 595.809L-71.6359 600.198L-74.1694 604.65L-76.8121 609.123L-79.5505 613.566L-82.3671 617.92L-85.24 622.122L-88.1426 626.103L-91.0445 629.792L-93.9114 633.116L-96.7063 636.003L-99.3904 638.386L-101.924 640.204L-104.269 641.409L-106.39 641.961L-108.255 641.838L-109.837 641.033L-111.117 639.556L-112.082 637.432L-112.73 634.702L-113.062 631.419L-113.09 627.648L-112.83 623.46L-112.307 618.93L-111.546 614.136L-110.578 609.153L-109.435 604.055L-108.147 598.906L-106.748 593.768L-105.266 588.693L-103.729 583.725L-102.164 578.902L-100.594 574.251L-99.0372 569.797L-97.5122 565.555L-96.0335 561.535L-94.6133 557.744L-93.2617 554.185L-91.9868 550.857L-90.7953 547.756L-89.6922 544.877L-88.6817 542.214L-87.767 539.761L-86.9506 537.508L-86.2348 535.449L-85.6215 533.575L-85.1125 531.879L-84.7099 530.354L-84.4159 528.992L-84.2332 527.789L-84.1651 526.738L-84.2155 525.836L-84.3892 525.08L-84.692 524.466L-85.1311 523.993L-85.7111 523.658L-86.4336 523.454L-87.3006 523.375L-88.3152 523.415L-89.4817 523.571L-90.8049 523.839L-92.2905 524.215L-93.9452 524.699L-95.7759 525.288L-97.7901 525.979L-99.9957 526.772L-102.401 527.663L-105.013 528.651L-107.839 529.732L-110.886 530.903L-114.16 532.159L-117.664 533.493L-121.4 534.897L-125.365 536.363L-129.555 537.878L-133.96 539.429L-138.565 540.998L-143.35 542.566L-148.286 544.111L-153.339 545.609L-158.467 547.031L-163.618 548.348L-168.734 549.529L-173.751 550.542L-178.597 551.355L-183.197 551.937L-187.474 552.262L-191.351 552.304L-194.757 552.046L-197.624 551.475L-199.897 550.585L-201.532 549.379L-202.499 547.868L-202.785 546.069L-202.392 544.007L-201.341 541.712L-199.665 539.22L-197.411 536.568L-194.639 533.796L-191.413 530.943L-187.805 528.046L-183.887 525.141L-179.731 522.258L-175.408 519.426L-170.981 516.667L-166.51 514L-162.048 511.439L-157.641 508.996L-153.326 506.675L-149.137 504.482L-145.098 502.416L-141.23 500.477L-137.546 498.661L-134.058 496.964L-130.772 495.38L-127.691 493.903L-124.816 492.526L-122.145 491.243L-119.677 490.046L-117.408 488.927L-115.332 487.881L-113.445 486.899L-111.742 485.977L-110.218 485.106L-108.867 484.282L-107.684 483.499L-106.666 482.75L-105.808 482.031L-105.107 481.336L-104.559 480.661L-104.163 480L-103.917 479.349L-103.819 478.704L-103.869 478.059L-104.068 477.41L-104.417 476.753L-104.916 476.083L-105.568 475.395L-106.376 474.684L-107.343 473.946L-108.472 473.174L-109.769 472.363L-111.238 471.508L-112.883 470.603L-114.711 469.641L-116.726 468.616L-118.933 467.521L-121.337 466.35L-123.943 465.095L-126.753 463.748L-129.768 462.304L-132.989 460.755L-136.414 459.095L-140.036 457.317L-143.847 455.418L-147.833 453.393L-151.977 451.24L-156.255 448.959L-160.636 446.554L-165.086 444.03L-169.559 441.396L-174.006 438.664L-178.369 435.853L-182.586 432.984L-186.587 430.082L-190.302 427.179L-193.657 424.308L-196.582 421.506L-199.007 418.812L-200.872 416.265L-202.127 413.903L-202.733 411.763L-202.664 409.877L-201.913 408.272L-200.489 406.967L-198.415 405.976L-195.732 405.304L-192.491 404.947L-188.756 404.895L-184.598 405.132L-180.092 405.636L-175.317 406.379L-170.346 407.331L-165.254 408.462L-160.108 409.739L-154.967 411.131L-149.885 412.608L-144.907 414.14L-140.071 415.704L-135.406 417.275L-130.935 418.833L-126.676 420.361L-122.638 421.844L-118.829 423.269L-115.251 424.627L-111.905 425.908L-108.785 427.106L-105.889 428.217L-103.21 429.235L-100.74 430.157L-98.4715 430.981L-96.3972 431.705L-94.5089 432.327L-92.7989 432.844L-91.2602 433.255L-89.8859 433.558L-88.6701 433.75L-87.6076 433.827L-86.6939 433.786L-85.9257 433.623L-85.3005 433.33L-84.8167 432.902L-84.4713 432.334L-84.2572 431.623L-84.1681 430.767L-84.1989 429.765L-84.3455 428.61L-84.6043 427.3L-84.9726 425.827L-85.4479 424.186L-86.0282 422.37L-86.7116 420.371L-87.4962 418.181L-88.3798 415.792L-89.3601 413.197L-90.4341 410.388L-91.598 407.358L-92.8469 404.102L-94.1749 400.617L-95.5743 396.9L-97.0356 392.953L-98.5473 388.78L-100.095 384.392L-101.664 379.802L-103.233 375.031L-104.781 370.105L-106.283 365.06L-107.712 359.936L-109.039 354.785L-110.232 349.664L-111.259 344.637L-112.089 339.774L-112.691 335.152L-113.037 330.847L-113.103 326.935L-112.869 323.489L-112.323 320.576L-111.459 318.254L-110.278 316.567L-108.79 315.547L-107.013 315.207L-104.971 315.546L-102.693 316.546L-100.216 318.174L-97.5752 320.383L-94.8113 323.116L-91.9632 326.308L-89.0686 329.889L-86.1627 333.785L-83.2773 337.924L-80.4401 342.237L-77.6747 346.658L-74.9999 351.127L-72.4304 355.591L-69.9769 360.005L-67.6464 364.328L-65.4427 368.528L-63.3668 372.58L-61.4176 376.462L-59.5921 380.161L-57.8857 383.665L-56.2931 386.967L-54.808 390.065L-53.4236 392.956L-52.133 395.643L-50.929 398.127L-49.8046 400.412L-48.7527 402.503L-47.7665 404.405L-46.8394 406.122L-45.9651 407.661L-45.1376 409.025L-44.351 410.221L-43.5996 411.252L-42.8782 412.123L-42.1817 412.836L-41.505 413.396L-40.8433 413.804L-40.1919 414.063L-39.5462 414.172L-38.9016 414.133L-38.2536 413.946L-37.5974 413.61L-36.9284 413.123L-36.242 412.483L-35.5331 411.688L-34.7967 410.734L-34.0276 409.617L-33.2203 408.334L-32.3691 406.879L-31.4681 405.248L-30.5109 403.435L-29.4913 401.435L-28.4023 399.243L-27.2372 396.855L-25.9889 394.265L-24.6502 391.472L-23.2141 388.473L-21.6736 385.268L-20.0224 381.86L-18.2544 378.253L-16.3647 374.457L-14.3497 370.484L-12.2071 366.352L-9.93686 362.084L-7.54144 357.709L-5.02631 353.264L-2.40024 348.791L0.32402 344.34L3.12955 339.967L5.99509 335.737L8.89491 331.715L11.7991 327.975L14.6741 324.588L17.483 321.627L20.1874 319.16L22.7477 317.248L25.1254 315.943L27.2841 315.285L29.1913 315.299L30.8199 315.995L32.149 317.367L33.1654 319.39L33.8633 322.027L34.2451 325.226L34.3204 328.924L34.1055 333.051L33.6224 337.531L32.8975 342.288L31.9605 347.246L30.8427 352.331L29.576 357.475L28.1922 362.619L26.7213 367.707L25.192 372.695L23.6301 377.543L22.0588 382.223L20.4988 386.71L18.9678 390.987L17.4808 395.042L16.0505 398.87L14.6874 402.466L13.3998 405.831L12.1946 408.968L11.0772 411.882L10.0517 414.578L9.12154 417.064L8.28937 419.348L7.55739 421.438L6.9276 423.341L6.40187 425.065L5.98219 426.617L5.67075 428.004L5.47015 429.232L5.38356 430.307L5.41475 431.232L5.56844 432.012L5.85028 432.648L6.26714 433.143L6.82465 433.5L7.52434 433.724L8.36812 433.823L9.35901 433.801L10.5009 433.664L11.7988 433.414L13.2582 433.054L14.8855 432.587L16.6876 432.015L18.6721 431.34L20.8467 430.563L23.2193 429.688L25.7978 428.715L28.5896 427.648L31.6015 426.491L34.839 425.249L38.3061 423.927L42.0047 422.533L45.9335 421.076L50.0883 419.568L54.4599 418.022L59.0345 416.455L63.7922 414.885L68.7066 413.335L73.7439 411.828L78.8627 410.392L84.0137 409.056L89.1398 407.851L94.177 406.809L99.055 405.963L103.699 405.341L108.033 404.974L111.979 404.885L115.464 405.094L118.422 405.615L120.793 406.454L122.531 407.61L123.606 409.074L124 410.829L123.715 412.851L122.766 415.111L121.187 417.574L119.022 420.203L116.328 422.958L113.17 425.801L109.618 428.693L105.744 431.6L101.622 434.488L97.3201 437.33L92.9056 440.102L88.4382 442.784L83.9716 445.363L79.5527 447.826L75.2212 450.166L71.01 452.38L66.9457 454.466L63.0491 456.425L59.3354 458.26L55.8157 459.976L52.497 461.578L49.3831 463.071L46.4752 464.463L43.7724 465.761L41.2724 466.972L38.9715 468.102L36.8653 469.16L34.9488 470.151L33.2169 471.082L31.6644 471.96L30.2861 472.792L29.0771 473.581L28.033 474.335L27.1497 475.059L26.4235 475.757L25.8516 476.435L25.4315 477.098L25.1613 477.75L25.04 478.396L25.0324 478.601Z" fill="#23A094"/>
<path fill-rule="evenodd" clip-rule="evenodd" d="M-1.47189 661.267L-1.30682 662.107L-0.817322 662.956L-0.0205994 663.826L1.05363 664.722L2.36203 665.653L3.84647 666.621L5.43317 667.627L7.03305 668.668L8.54379 669.734L9.85394 670.812L10.8498 671.884L11.4247 672.928L11.4892 673.918L10.9816 674.832L9.8764 675.649L8.18872 676.351L5.97339 676.931L3.3197 677.39L0.341919 677.734L-2.83217 677.98L-6.07219 678.15L-9.25447 678.268L-12.268 678.363L-15.0172 678.462L-17.4217 678.594L-19.4137 678.789L-20.9334 679.076L-21.924 679.486L-22.3244 680.054L-22.0617 680.823L-21.0417 681.845L-19.1362 683.187L-16.1656 684.941L-11.8725 687.234L-7.20526 689.767L-13.365 688.336L-17.8477 687.422L-21.0306 686.929L-23.1748 686.796L-24.4646 686.98L-25.034 687.452L-24.9834 688.194L-24.3924 689.192L-23.329 690.433L-21.8568 691.904L-20.0411 693.59L-17.9541 695.467L-15.6777 697.503L-13.3058 699.658L-10.9428 701.878L-8.70085 704.103L-6.69327 706.263L-5.02591 708.29L-3.78777 710.116L-3.04173 711.688L-2.81799 712.967L-3.11125 713.935L-3.88239 714.597L-5.06404 714.977L-6.56917 715.117L-8.3006 715.07L-10.1598 714.897L-12.0543 714.658L-13.9023 714.412L-15.636 714.212L-17.2016 714.104L-18.5597 714.127L-19.6834 714.313L-20.5572 714.686L-21.1757 715.262L-21.5428 716.052L-21.6706 717.058L-21.5801 718.274L-21.301 719.686L-20.8723 721.27L-20.343 722.988L-19.7713 724.79L-19.2247 726.614L-18.777 728.386L-18.5051 730.022L-18.4833 731.435L-18.7769 732.54L-19.4353 733.265L-20.4858 733.555L-21.9292 733.382L-23.7388 732.752L-25.8626 731.697L-28.2292 730.281L-30.7547 728.585L-33.3511 726.707L-35.9333 724.746L-38.4248 722.802L-40.7606 720.963L-42.888 719.313L-44.7659 717.923L-46.3624 716.857L-47.6516 716.176L-48.6104 715.941L-49.2141 716.221L-49.4324 717.098L-49.2242 718.677L-48.5311 721.101L-47.2686 724.567L-45.3129 729.357L-44.5867 732.21L-48.1861 727.46L-50.882 724.115L-52.8877 721.882L-54.3527 720.559L-55.3847 720.006L-56.0638 720.12L-56.4517 720.827L-56.5986 722.067L-56.5478 723.787L-56.3395 725.937L-56.0131 728.46L-55.6095 731.291L-55.1717 734.35L-54.7452 737.542L-54.3767 740.758L-54.112 743.875L-53.993 746.77L-54.0541 749.321L-54.3191 751.426L-54.7981 753.008L-55.4869 754.024L-56.3678 754.473L-57.4116 754.389L-58.5816 753.84L-59.8375 752.917L-61.1396 751.727L-62.4518 750.378L-63.7436 748.974L-64.9914 747.612L-66.1785 746.373L-67.295 745.324L-68.3363 744.518L-69.3029 743.993L-70.1991 743.776L-71.0322 743.88L-71.8119 744.31L-72.5494 745.056L-73.2574 746.099L-73.9496 747.407L-74.6397 748.932L-75.3413 750.611L-76.0673 752.367L-76.8285 754.105L-77.6331 755.718L-78.4856 757.093L-79.3858 758.115L-80.3286 758.68L-81.3037 758.706L-82.2968 758.14L-83.2905 756.968L-84.2667 755.218L-85.2081 752.956L-86.1003 750.281L-86.9337 747.314L-87.7033 744.186L-88.4096 741.029L-89.0579 737.963L-89.6573 735.099L-90.2205 732.529L-90.7627 730.332L-91.3013 728.576L-91.8558 727.325L-92.4485 726.64L-93.105 726.591L-93.856 727.265L-94.7395 728.774L-95.8049 731.276L-97.1183 734.99L-98.7713 740.233L-99.6359 740.511L-99.3818 734.902L-99.3331 730.873L-99.4671 728.084L-99.7701 726.303L-100.235 725.363L-100.858 725.14L-101.639 725.543L-102.578 726.496L-103.674 727.931L-104.925 729.785L-106.324 731.988L-107.858 734.46L-109.509 737.11L-111.248 739.835L-113.039 742.518L-114.838 745.036L-116.596 747.267L-118.262 749.101L-119.789 750.446L-121.136 751.245L-122.277 751.474L-123.199 751.151L-123.905 750.328L-124.414 749.084L-124.754 747.518L-124.966 745.737L-125.091 743.847L-125.174 741.947L-125.257 740.121L-125.38 738.441L-125.578 736.96L-125.878 735.721L-126.307 734.749L-126.883 734.06L-127.619 733.658L-128.524 733.537L-129.601 733.683L-130.844 734.07L-132.242 734.662L-133.774 735.412L-135.407 736.261L-137.099 737.139L-138.795 737.964L-140.432 738.65L-141.939 739.105L-143.242 739.245L-144.272 738.994L-144.97 738.302L-145.295 737.142L-145.23 735.521L-144.783 733.478L-143.989 731.08L-142.904 728.415L-141.601 725.584L-140.161 722.689L-138.669 719.83L-137.206 717.094L-135.849 714.556L-134.666 712.278L-133.717 710.307L-133.06 708.684L-132.75 707.443L-132.844 706.617L-133.409 706.246L-134.528 706.378L-136.309 707.079L-138.898 708.444L-142.499 710.606L-147.407 713.764L-146.402 711.876L-142.843 707.967L-140.406 705.083L-138.872 702.996L-138.091 701.546L-137.957 700.617L-138.393 700.121L-139.342 699.992L-140.757 700.172L-142.595 700.612L-144.812 701.264L-147.356 702.078L-150.165 703.002L-153.162 703.976L-156.256 704.938L-159.343 705.822L-162.308 706.563L-165.036 707.1L-167.419 707.383L-169.366 707.377L-170.815 707.065L-171.738 706.453L-172.142 705.564L-172.069 704.438L-171.589 703.128L-170.792 701.69L-169.776 700.181L-168.643 698.653L-167.487 697.152L-166.396 695.714L-165.44 694.366L-164.68 693.127L-164.162 692.006L-163.919 691.009L-163.973 690.134L-164.337 689.374L-165.011 688.718L-165.984 688.154L-167.235 687.663L-168.728 687.226L-170.415 686.82L-172.23 686.42L-174.092 685.999L-175.906 685.53L-177.563 684.987L-178.951 684.348L-179.96 683.595L-180.493 682.717L-180.475 681.715L-179.867 680.597L-178.666 679.381L-176.912 678.092L-174.68 676.76L-172.075 675.416L-169.22 674.09L-166.243 672.808L-163.273 671.59L-160.425 670.449L-157.804 669.394L-155.498 668.425L-153.583 667.54L-152.127 666.733L-151.194 665.994L-150.851 665.311L-151.177 664.67L-152.271 664.055L-154.267 663.447L-157.347 662.823L-161.772 662.154L-167.918 661.399L-163.52 660.609L-158.595 659.917L-155.119 659.283L-152.802 658.672L-151.437 658.062L-150.878 657.431L-151.017 656.763L-151.77 656.043L-153.066 655.259L-154.842 654.399L-157.031 653.458L-159.561 652.43L-162.347 651.316L-165.291 650.122L-168.279 648.858L-171.187 647.544L-173.886 646.203L-176.249 644.863L-178.165 643.557L-179.548 642.314L-180.346 641.163L-180.549 640.122L-180.185 639.205L-179.319 638.413L-178.04 637.739L-176.456 637.168L-174.68 636.678L-172.823 636.245L-170.983 635.841L-169.248 635.44L-167.686 635.015L-166.353 634.544L-165.289 634.005L-164.518 633.38L-164.055 632.654L-163.903 631.816L-164.053 630.858L-164.487 629.777L-165.174 628.575L-166.073 627.26L-167.129 625.848L-168.273 624.364L-169.423 622.84L-170.487 621.319L-171.365 619.853L-171.957 618.495L-172.168 617.305L-171.922 616.336L-171.167 615.632L-169.884 615.223L-168.09 615.12L-165.837 615.314L-163.208 615.775L-160.306 616.457L-157.246 617.303L-154.142 618.247L-151.103 619.225L-148.226 620.171L-145.59 621.026L-143.263 621.735L-141.299 622.248L-139.744 622.516L-138.642 622.491L-138.037 622.119L-137.982 621.336L-138.547 620.063L-139.828 618.194L-141.957 615.584L-145.13 612.032L-149.309 607.511L-143.903 611.041L-139.923 613.496L-137.037 615.098L-135.017 615.998L-133.701 616.303L-132.969 616.086L-132.733 615.401L-132.921 614.289L-133.474 612.783L-134.336 610.919L-135.451 608.734L-136.759 606.273L-138.196 603.593L-139.687 600.764L-141.153 597.87L-142.509 595.007L-143.672 592.278L-144.566 589.785L-145.128 587.62L-145.317 585.859L-145.115 584.55L-144.533 583.71L-143.603 583.324L-142.38 583.346L-140.93 583.71L-139.327 584.332L-137.642 585.123L-135.942 585.993L-134.285 586.859L-132.717 587.648L-131.274 588.296L-129.979 588.752L-128.848 588.978L-127.888 588.945L-127.099 588.633L-126.474 588.036L-126 587.153L-125.661 585.996L-125.434 584.589L-125.29 582.967L-125.198 581.18L-125.12 579.295L-125.013 577.392L-124.834 575.565L-124.539 573.919L-124.088 572.561L-123.447 571.594L-122.595 571.104L-121.523 571.154L-120.239 571.772L-118.766 572.948L-117.139 574.635L-115.405 576.751L-113.614 579.19L-111.815 581.834L-110.055 584.559L-108.373 587.245L-106.799 589.784L-105.355 592.082L-104.056 594.054L-102.91 595.63L-101.921 596.744L-101.09 597.329L-100.416 597.315L-99.9008 596.615L-99.5457 595.117L-99.3568 592.671L-99.3453 589.068L-99.5308 584.007L-99.3892 580.241L-97.6026 586.058L-96.1926 590.219L-95.0564 593.079L-94.1209 594.886L-93.3323 595.812L-92.6494 595.983L-92.0393 595.492L-91.4752 594.414L-90.9338 592.812L-90.3947 590.749L-89.84 588.29L-89.2536 585.51L-88.622 582.497L-87.935 579.356L-87.1858 576.205L-86.3725 573.173L-85.4982 570.391L-84.5711 567.985L-83.6043 566.063L-82.6141 564.702L-81.6189 563.942L-80.6363 563.783L-79.6819 564.185L-78.7673 565.072L-77.8994 566.347L-77.0798 567.897L-76.3055 569.607L-75.5694 571.368L-74.8613 573.081L-74.169 574.662L-73.479 576.045L-72.7775 577.177L-72.0508 578.02L-71.2859 578.552L-70.4709 578.76L-69.5957 578.645L-68.6521 578.215L-67.6349 577.495L-66.5421 576.519L-65.3767 575.333L-64.1468 574.002L-62.8668 572.602L-61.5581 571.225L-60.2491 569.972L-58.9742 568.952L-57.7725 568.274L-56.6842 568.033L-55.7479 568.306L-54.9953 569.14L-54.4483 570.545L-54.1156 572.49L-53.9915 574.909L-54.0564 577.707L-54.279 580.767L-54.6193 583.964L-55.0324 587.176L-55.4716 590.289L-55.8909 593.202L-56.2465 595.831L-56.4967 598.106L-56.6019 599.969L-56.5225 601.367L-56.2164 602.25L-55.6361 602.56L-54.7242 602.229L-53.4072 601.164L-51.5876 599.24L-49.1311 596.276L-45.8478 592.012L-44.5167 591.311L-46.7282 596.601L-48.1957 600.454L-49.0595 603.185L-49.4148 605.015L-49.3272 606.103L-48.8425 606.563L-47.994 606.484L-46.8075 605.939L-45.3063 604.989L-43.5149 603.695L-41.463 602.12L-39.1885 600.334L-36.7401 598.413L-34.179 596.447L-31.5782 594.532L-29.0206 592.768L-26.5939 591.252L-24.3842 590.075L-22.4679 589.304L-20.9037 588.984L-19.7268 589.128L-18.9452 589.718L-18.5398 590.71L-18.4676 592.033L-18.6677 593.608L-19.0677 595.346L-19.591 597.162L-20.1624 598.979L-20.7121 600.729L-21.1786 602.36L-21.51 603.83L-21.6643 605.111L-21.6086 606.185L-21.3195 607.044L-20.7819 607.687L-19.9893 608.123L-18.944 608.366L-17.6583 608.439L-16.1551 608.369L-14.4698 608.193L-12.6515 607.957L-10.7636 607.709L-8.88353 607.508L-7.10089 607.415L-5.51288 607.489L-4.21806 607.787L-3.30774 608.356L-2.85652 609.224L-2.91331 610.405L-3.4946 611.887L-4.58136 613.638L-6.12056 615.607L-8.03065 617.733L-10.2101 619.944L-12.5469 622.173L-14.9278 624.355L-17.2453 626.434L-19.4021 628.366L-21.3125 630.115L-22.9014 631.657L-24.1019 632.973L-24.8504 634.049L-25.081 634.874L-24.7188 635.434L-23.6712 635.712L-21.8163 635.684L-18.9883 635.311L-14.954 634.54L-9.37877 633.286L-10.1707 634.428L-14.9567 636.929L-18.316 638.838L-20.5382 640.3L-21.8243 641.416L-22.3167 642.259L-22.1188 642.886L-21.3092 643.343L-19.9517 643.665L-18.1039 643.886L-15.824 644.035L-13.1765 644.142L-10.2376 644.235L-7.0977 644.342L-3.86316 644.493L-0.654083 644.712L2.40044 645.023L5.17062 645.444L7.53668 645.985L9.40021 646.649L10.6945 647.43L11.3915 648.315L11.5042 649.284L11.0834 650.313L10.2106 651.379L8.98834 652.457L7.52913 653.529L5.94598 654.579L4.34474 655.596L2.81897 656.577L1.44745 657.519L0.293243 658.426L-0.595734 659.303L-1.18553 660.158L-1.45509 661L-1.47189 661.267Z" fill="#FF90E8"/>
<path fill-rule="evenodd" clip-rule="evenodd" d="M21.8117 481.442L21.7797 482.08L21.6842 482.717L21.5254 483.35L21.3042 483.977L21.0217 484.598L20.6793 485.21L20.2786 485.812L19.8216 486.402L19.3105 486.979L18.7476 487.542L18.1354 488.089L17.4769 488.619L16.7749 489.132L16.0324 489.626L15.2525 490.102L14.4386 490.557L13.5937 490.993L12.7213 491.408L11.8245 491.802L10.9066 492.176L9.97087 492.529L9.02038 492.861L8.0582 493.173L7.0873 493.465L6.11053 493.738L5.13065 493.991L4.15021 494.227L3.17171 494.444L2.19748 494.644L1.22966 494.828L0.270287 494.996L-0.678772 495.15L-1.61578 495.29L-2.53919 495.416L-3.44756 495.531L-4.33961 495.634L-5.2142 495.727L-6.0703 495.81L-6.90704 495.885L-7.72364 495.952L-8.51946 496.013L-9.29394 496.067L-10.0466 496.116L-10.7771 496.162L-11.4852 496.203L-12.1707 496.242L-12.8334 496.28L-13.4733 496.316L-14.0903 496.352L-14.6846 496.388L-15.2561 496.426L-15.805 496.465L-16.3314 496.507L-16.8356 496.552L-17.3176 496.601L-17.7778 496.655L-18.2162 496.714L-18.6333 496.779L-19.0291 496.851L-19.4039 496.93L-19.7579 497.018L-20.0914 497.114L-20.4045 497.219L-20.6974 497.335L-20.9703 497.462L-21.2233 497.6L-21.4566 497.752L-21.6701 497.917L-21.864 498.097L-22.0382 498.292L-22.1929 498.504L-22.3278 498.734L-22.4429 498.983L-22.538 499.252L-22.6129 499.543L-22.6674 499.858L-22.701 500.197L-22.7135 500.564L-22.7043 500.96L-22.6728 501.386L-22.6185 501.847L-22.5405 502.343L-22.438 502.879L-22.3101 503.457L-22.1557 504.081L-21.9735 504.754L-21.7621 505.482L-21.52 506.268L-21.2454 507.119L-20.9363 508.04L-20.5906 509.038L-20.2057 510.12L-19.7788 511.296L-19.3069 512.573L-18.7864 513.964L-18.2134 515.479L-17.5835 517.133L-16.8916 518.942L-16.132 520.922L-15.2984 523.094L-14.3836 525.482L-13.3793 528.11L-12.276 531.011L-11.0632 534.22L-10.7972 535.913L-13.0712 533.14L-15.1215 530.628L-16.975 528.35L-18.6548 526.279L-20.181 524.396L-21.5711 522.679L-22.8402 521.114L-24.0014 519.686L-25.0665 518.381L-26.0454 517.189L-26.9472 516.099L-27.7798 515.103L-28.5501 514.193L-29.2644 513.362L-29.9281 512.604L-30.5462 511.912L-31.1231 511.283L-31.6628 510.712L-32.1687 510.195L-32.6441 509.729L-33.0919 509.309L-33.5148 508.934L-33.915 508.6L-34.2948 508.307L-34.6562 508.05L-35.0009 507.829L-35.3307 507.642L-35.6472 507.488L-35.9517 507.364L-36.2456 507.271L-36.5301 507.206L-36.8065 507.169L-37.0757 507.16L-37.339 507.176L-37.5972 507.218L-37.8512 507.286L-38.1021 507.377L-38.3506 507.493L-38.5977 507.633L-38.844 507.795L-39.0904 507.981L-39.3377 508.19L-39.5867 508.421L-39.8379 508.674L-40.0923 508.949L-40.3505 509.247L-40.6132 509.566L-40.8811 509.906L-41.1549 510.269L-41.4354 510.652L-41.7232 511.057L-42.019 511.483L-42.3236 511.929L-42.6375 512.396L-42.9614 512.884L-43.2961 513.392L-43.6422 513.919L-44.0004 514.466L-44.3712 515.032L-44.7553 515.616L-45.1534 516.219L-45.566 516.838L-45.9936 517.475L-46.4368 518.127L-46.896 518.794L-47.3718 519.476L-47.8646 520.17L-48.3746 520.876L-48.9022 521.593L-49.4476 522.319L-50.0111 523.052L-50.5926 523.792L-51.1922 524.536L-51.8097 525.282L-52.4451 526.029L-53.0981 526.774L-53.7682 527.515L-54.4549 528.25L-55.1576 528.976L-55.8757 529.692L-56.6081 530.393L-57.3539 531.078L-58.112 531.745L-58.8812 532.389L-59.6599 533.009L-60.4468 533.601L-61.2401 534.163L-62.0382 534.693L-62.8391 535.186L-63.6409 535.642L-64.4415 536.056L-65.2387 536.427L-66.0305 536.753L-66.8145 537.031L-67.5884 537.26L-68.3498 537.437L-69.0966 537.562L-69.8263 537.632L-70.5367 537.647L-71.2256 537.606L-71.8907 537.509L-72.5302 537.354L-73.1419 537.144L-73.7241 536.877L-74.2751 536.554L-74.7934 536.177L-75.2775 535.746L-75.7263 535.263L-76.1388 534.73L-76.5141 534.148L-76.8517 533.52L-77.1511 532.847L-77.4121 532.134L-77.6347 531.381L-77.8191 530.592L-77.9657 529.77L-78.0749 528.918L-78.1476 528.039L-78.1847 527.136L-78.1871 526.211L-78.1561 525.269L-78.0929 524.311L-77.9991 523.342L-77.876 522.363L-77.7254 521.379L-77.5489 520.39L-77.3482 519.4L-77.125 518.412L-76.8812 517.428L-76.6186 516.449L-76.3389 515.478L-76.044 514.517L-75.7357 513.568L-75.4156 512.631L-75.0856 511.71L-74.7472 510.804L-74.4021 509.915L-74.0518 509.043L-73.6979 508.191L-73.3418 507.358L-72.9849 506.545L-72.6285 505.753L-72.2738 504.982L-71.922 504.232L-71.5743 503.503L-71.2316 502.795L-70.8951 502.109L-70.5656 501.445L-70.2439 500.802L-69.931 500.179L-69.6275 499.578L-69.3342 498.996L-69.0519 498.435L-68.781 497.894L-68.5222 497.372L-68.2761 496.869L-68.0433 496.384L-67.8242 495.917L-67.6193 495.468L-67.4292 495.035L-67.2543 494.619L-67.0951 494.218L-66.9521 493.833L-66.8258 493.462L-66.7166 493.106L-66.6251 492.763L-66.5517 492.434L-66.4971 492.117L-66.4618 491.812L-66.4464 491.519L-66.4517 491.236L-66.4783 490.965L-66.527 490.703L-66.5986 490.45L-66.6941 490.206L-66.8144 489.971L-66.9607 489.744L-67.1341 489.524L-67.3358 489.31L-67.5675 489.103L-67.8305 488.902L-68.1266 488.706L-68.4578 488.514L-68.8261 488.326L-69.2338 488.142L-69.6834 487.96L-70.1778 487.781L-70.7202 487.602L-71.3138 487.424L-71.9626 487.246L-72.6708 487.066L-73.4432 486.884L-74.285 486.698L-75.202 486.508L-76.2009 486.311L-77.289 486.107L-78.4746 485.894L-79.7668 485.669L-81.1762 485.432L-82.7145 485.178L-84.3949 484.905L-86.2326 484.611L-88.2446 484.291L-90.4505 483.942L-92.8726 483.558L-95.5362 483.133L-98.4707 482.661L-101.71 482.134L-105.292 481.543L-102.812 480.931L-99.4676 480.385L-96.44 479.897L-93.6935 479.457L-91.1974 479.061L-88.9252 478.701L-86.8537 478.372L-84.9624 478.07L-83.2336 477.791L-81.6516 477.532L-80.2025 477.289L-78.8742 477.061L-77.6557 476.844L-76.5375 476.637L-75.511 476.438L-74.5686 476.246L-73.7035 476.059L-72.9097 475.876L-72.1815 475.696L-71.5143 475.517L-70.9035 475.339L-70.3452 475.161L-69.8359 474.981L-69.3723 474.8L-68.9515 474.617L-68.571 474.43L-68.2282 474.24L-67.9211 474.045L-67.6477 473.846L-67.4063 473.641L-67.1952 473.429L-67.0129 473.212L-66.8582 472.987L-66.7297 472.754L-66.6264 472.513L-66.5473 472.263L-66.4914 472.004L-66.4578 471.736L-66.4459 471.457L-66.4547 471.167L-66.4837 470.866L-66.5322 470.553L-66.5997 470.227L-66.6855 469.889L-66.7891 469.537L-66.9101 469.171L-67.0478 468.791L-67.2019 468.395L-67.3718 467.984L-67.5571 467.556L-67.7573 467.112L-67.972 466.651L-68.2005 466.172L-68.4424 465.675L-68.6972 465.159L-68.9643 464.624L-69.2431 464.069L-69.533 463.494L-69.8333 462.899L-70.1433 462.283L-70.4622 461.647L-70.7893 460.989L-71.1237 460.31L-71.4645 459.609L-71.8107 458.887L-72.1613 458.144L-72.5152 457.379L-72.8712 456.594L-73.2281 455.787L-73.5846 454.961L-73.9394 454.114L-74.291 453.249L-74.6379 452.366L-74.9786 451.465L-75.3115 450.548L-75.6349 449.616L-75.9472 448.671L-76.2466 447.713L-76.5313 446.746L-76.7995 445.769L-77.0495 444.786L-77.2794 443.799L-77.4875 442.81L-77.6719 441.82L-77.831 440.834L-77.963 439.853L-78.0663 438.881L-78.1394 437.919L-78.1808 436.971L-78.1891 436.041L-78.1633 435.131L-78.102 434.243L-78.0045 433.382L-77.8699 432.55L-77.6976 431.751L-77.4872 430.986L-77.2384 430.26L-76.9512 429.574L-76.6258 428.932L-76.2624 428.335L-75.8617 427.786L-75.4243 427.287L-74.9514 426.839L-74.4438 426.444L-73.9031 426.104L-73.3307 425.82L-72.7281 425.591L-72.0973 425.419L-71.4401 425.303L-70.7586 425.245L-70.0548 425.242L-69.331 425.295L-68.5894 425.402L-67.8324 425.562L-67.0622 425.775L-66.2812 426.037L-65.4916 426.348L-64.6959 426.705L-63.8961 427.106L-63.0945 427.549L-62.2931 428.031L-61.4939 428.549L-60.6989 429.101L-59.9098 429.684L-59.1282 430.295L-58.3559 430.932L-57.5941 431.592L-56.8443 432.271L-56.1075 432.968L-55.3847 433.679L-54.677 434.402L-53.9851 435.135L-53.3097 435.874L-52.6512 436.618L-52.0102 437.364L-51.3869 438.111L-50.7816 438.856L-50.1943 439.597L-49.6252 440.333L-49.074 441.061L-48.5407 441.781L-48.0251 442.491L-47.5269 443.189L-47.0458 443.874L-46.5813 444.546L-46.133 445.204L-45.7005 445.845L-45.2832 446.47L-44.8806 447.078L-44.4921 447.668L-44.1171 448.24L-43.755 448.793L-43.4051 449.327L-43.0668 449.841L-42.7395 450.335L-42.4225 450.809L-42.1151 451.262L-41.8165 451.694L-41.5263 452.106L-41.2435 452.496L-40.9676 452.865L-40.6979 453.212L-40.4336 453.538L-40.1741 453.843L-39.9186 454.125L-39.6664 454.385L-39.4168 454.624L-39.1691 454.839L-38.9225 455.032L-38.6762 455.202L-38.4295 455.349L-38.1815 455.473L-37.9314 455.572L-37.6785 455.647L-37.4217 455.697L-37.1602 455.722L-36.893 455.721L-36.619 455.693L-36.3372 455.637L-36.0464 455.553L-35.7454 455.439L-35.4329 455.295L-35.1075 455.118L-34.7677 454.908L-34.4118 454.663L-34.0381 454.382L-33.6446 454.061L-33.2292 453.699L-32.7896 453.294L-32.3233 452.843L-31.8274 452.342L-31.2989 451.789L-30.7342 451.179L-30.1297 450.508L-29.481 449.772L-28.7834 448.964L-28.0316 448.08L-27.2196 447.112L-26.3406 446.053L-25.3872 444.895L-24.3506 443.627L-23.2212 442.239L-21.9878 440.719L-20.6378 439.053L-19.1567 437.224L-17.5279 435.216L-15.7321 433.006L-13.7472 430.571L-11.5477 427.885L-10.6519 427.572L-11.9022 430.886L-13.0391 433.881L-14.0738 436.593L-15.0162 439.054L-15.8749 441.292L-16.6573 443.331L-17.3701 445.192L-18.0192 446.894L-18.6098 448.452L-19.1466 449.881L-19.6336 451.193L-20.0744 452.4L-20.4723 453.511L-20.8303 454.535L-21.1508 455.48L-21.4361 456.353L-21.6884 457.159L-21.9094 457.905L-22.1007 458.595L-22.2639 459.234L-22.4001 459.826L-22.5106 460.375L-22.5962 460.884L-22.658 461.355L-22.6967 461.792L-22.7129 462.198L-22.7073 462.573L-22.6804 462.921L-22.6325 463.244L-22.564 463.542L-22.4753 463.818L-22.3666 464.073L-22.238 464.309L-22.0896 464.527L-21.9216 464.727L-21.734 464.912L-21.5267 465.081L-21.2998 465.237L-21.0531 465.38L-20.7865 465.51L-20.5 465.63L-20.1934 465.738L-19.8664 465.837L-19.5189 465.927L-19.1507 466.009L-18.7616 466.083L-18.3514 466.15L-17.9198 466.211L-17.4665 466.266L-16.9915 466.317L-16.4944 466.363L-15.9751 466.406L-15.4334 466.446L-14.8691 466.484L-14.2821 466.521L-13.6723 466.557L-13.0397 466.593L-12.3843 466.63L-11.706 466.668L-11.0051 466.709L-10.2817 466.753L-9.53607 466.801L-8.76849 466.854L-7.97942 466.912L-7.16937 466.977L-6.33897 467.05L-5.48894 467.13L-4.62014 467.22L-3.73353 467.32L-2.83024 467.431L-1.91146 467.553L-0.978622 467.689L-0.033226 467.838L0.92305 468.001L1.88839 468.18L2.86082 468.375L3.83821 468.587L4.81828 468.816L5.79862 469.064L6.77667 469.33L7.74975 469.616L8.71502 469.922L9.66956 470.248L10.6103 470.594L11.5343 470.961L12.4381 471.349L13.3187 471.757L14.1727 472.186L14.9968 472.636L15.7879 473.105L16.5426 473.593L17.2579 474.1L17.9306 474.625L18.5578 475.167L19.1367 475.725L19.6646 476.297L20.1391 476.883L20.5579 477.481L20.9191 478.09L21.2208 478.708L21.4617 479.334L21.6404 479.965L21.7562 480.601L21.8084 481.239L21.8117 481.442Z" fill="#B23386"/>
</g>
<defs>
<clipPath id="clip0_54001_26336">
<rect width="124" height="770" fill="white" transform="matrix(-1 0 0 1 124 0)"/>
</clipPath>
</defs>
</svg>
