<svg width="124" height="770" viewBox="0 0 124 770" fill="none" xmlns="http://www.w3.org/2000/svg">
<g clip-path="url(#clip0_54001_26320)">
<rect width="410.494" height="439" transform="matrix(-1 0 0 1 455.064 357.966)" fill="#FFC900"/>
<rect width="410.494" height="439" transform="matrix(-1 0 0 1 455.064 -74.4895)" fill="#FFC900"/>
<path fill-rule="evenodd" clip-rule="evenodd" d="M98.9676 46.1452L98.8934 46.7902L98.6708 47.4398L98.2986 48.0986L97.7752 48.7713L97.0985 49.4627L96.2657 50.1776L95.2732 50.9214L94.1172 51.6991L92.7933 52.5163L91.2968 53.3789L89.6226 54.2928L87.7655 55.2642L85.7203 56.2998L83.4819 57.4063L81.0457 58.5907L78.4079 59.86L75.5655 61.2213L72.5172 62.6817L69.2635 64.2481L65.8072 65.9267L62.1543 67.7233L58.3145 69.6427L54.3016 71.6881L50.1347 73.8612L45.8383 76.1617L41.4431 78.5863L36.987 81.1289L32.5144 83.7797L28.0768 86.5251L23.7324 89.3471L19.5455 92.2233L15.5848 95.127L11.9223 98.0275L8.63086 100.89L5.78168 103.678L3.44165 106.351L1.6702 108.871L0.516632 111.2L0.0174866 113.301L0.194489 115.144L1.05331 116.703L2.58322 117.958L4.75714 118.899L7.53342 119.521L10.8575 119.828L14.6646 119.832L18.883 119.551L23.4367 119.008L28.2484 118.229L33.2428 117.246L38.3478 116.09L43.4975 114.792L48.6322 113.385L53.7004 111.898L58.6579 110.358L63.4688 108.792L68.1042 107.222L72.5422 105.667L76.7672 104.146L80.7687 102.671L84.5409 101.256L88.0817 99.9101L91.392 98.6417L94.4752 97.457L97.3364 96.3612L99.982 95.3582L102.419 94.4512L104.656 93.6428L106.7 92.9351L108.56 92.33L110.242 91.8294L111.754 91.4353L113.103 91.1501L114.294 90.9765L115.332 90.9176L116.223 90.9777L116.968 91.1614L117.571 91.4748L118.032 91.925L118.356 92.5163L118.55 93.2502L118.62 94.1288L118.57 95.1554L118.405 96.3341L118.129 97.67L117.743 99.1689L117.251 100.837L116.654 102.682L115.955 104.712L115.154 106.933L114.255 109.354L113.26 111.983L112.171 114.826L110.993 117.892L109.731 121.184L108.391 124.706L106.981 128.46L105.511 132.443L103.993 136.651L102.44 141.072L100.87 145.693L99.3032 150.491L97.7607 155.438L96.2683 160.499L94.8535 165.63L93.5462 170.78L92.3774 175.891L91.3794 180.897L90.5836 185.726L90.0205 190.303L89.7176 194.551L89.6983 198.394L89.9811 201.759L90.5777 204.581L91.4928 206.804L92.7234 208.387L94.2585 209.3L96.0797 209.531L98.1616 209.085L100.473 207.982L102.98 206.258L105.642 203.962L108.422 201.151L111.28 197.892L114.179 194.256L117.084 190.317L119.963 186.145L122.79 181.811L125.542 177.379L128.201 172.907L130.753 168.448L133.187 164.046L135.498 159.741L137.681 155.562L139.737 151.536L141.666 147.682L143.472 144.014L145.16 140.542L146.735 137.272L148.204 134.207L149.573 131.348L150.849 128.694L152.04 126.242L153.152 123.988L154.193 121.928L155.17 120.056L156.088 118.367L156.954 116.857L157.775 115.52L158.556 114.35L159.302 113.345L160.019 112.5L160.712 111.81L161.386 111.275L162.046 110.891L162.696 110.656L163.341 110.57L163.986 110.633L164.635 110.844L165.293 111.204L165.964 111.715L166.654 112.379L167.367 113.2L168.108 114.179L168.883 115.322L169.697 116.632L170.555 118.115L171.465 119.775L172.432 121.617L173.462 123.647L174.563 125.87L175.74 128.29L177.003 130.912L178.356 133.738L179.809 136.77L181.366 140.007L183.036 143.448L184.823 147.085L186.732 150.911L188.768 154.91L190.931 159.066L193.221 163.353L195.636 167.742L198.169 172.194L200.812 176.668L203.55 181.11L206.367 185.464L209.24 189.666L212.143 193.647L215.044 197.336L217.911 200.66L220.706 203.547L223.39 205.93L225.924 207.748L228.269 208.953L230.39 209.505L232.255 209.382L233.837 208.577L235.117 207.1L236.082 204.976L236.73 202.246L237.062 198.963L237.09 195.192L236.83 191.004L236.307 186.474L235.546 181.68L234.578 176.697L233.435 171.599L232.147 166.45L230.748 161.312L229.266 156.237L227.729 151.269L226.164 146.446L224.594 141.795L223.037 137.341L221.512 133.099L220.034 129.079L218.613 125.289L217.262 121.729L215.987 118.401L214.795 115.3L213.692 112.421L212.682 109.758L211.767 107.305L210.951 105.052L210.235 102.993L209.621 101.119L209.112 99.4231L208.71 97.8977L208.416 96.5362L208.233 95.3328L208.165 94.2823L208.215 93.3804L208.389 92.6236L208.692 92.0097L209.131 91.5372L209.711 91.2025L210.434 90.9985L211.301 90.9191L212.315 90.9593L213.482 91.1149L214.805 91.3826L216.291 91.7594L217.945 92.2432L219.776 92.8318L221.79 93.5233L223.996 94.3158L226.401 95.2073L229.013 96.1952L231.839 97.2764L234.886 98.4473L238.16 99.7028L241.664 101.037L245.4 102.441L249.365 103.907L253.555 105.422L257.96 106.973L262.565 108.542L267.35 110.11L272.286 111.655L277.339 113.153L282.467 114.575L287.618 115.892L292.734 117.073L297.751 118.086L302.597 118.899L307.197 119.481L311.474 119.806L315.351 119.849L318.757 119.59L321.624 119.019L323.897 118.129L325.532 116.923L326.499 115.412L326.785 113.613L326.392 111.551L325.341 109.256L323.665 106.764L321.411 104.112L318.639 101.34L315.413 98.4868L311.805 95.5901L307.887 92.6847L303.731 89.8022L299.408 86.9699L294.981 84.211L290.51 81.5441L286.048 78.9836L281.641 76.5397L277.326 74.2191L273.137 72.0256L269.098 69.9599L265.23 68.0207L261.546 66.2048L258.058 64.5077L254.772 62.9239L251.691 61.4471L248.816 60.0704L246.145 58.787L243.677 57.5896L241.408 56.4711L239.332 55.4247L237.445 54.4435L235.742 53.5208L234.218 52.6505L232.867 51.8264L231.684 51.0428L230.666 50.294L229.808 49.5748L229.107 48.88L228.559 48.2047L228.163 47.544L227.917 46.8932L227.819 46.2478L227.869 45.6031L228.068 44.9546L228.417 44.2975L228.916 43.6274L229.568 42.9393L230.376 42.2284L231.343 41.4897L232.472 40.7177L233.769 39.9071L235.238 39.0522L236.883 38.1469L238.711 37.185L240.726 36.1601L242.933 35.0654L245.337 33.8939L247.943 32.6386L250.753 31.2924L253.768 29.8482L256.989 28.2992L260.414 26.6388L264.036 24.8613L267.847 22.9618L271.833 20.9367L275.977 18.7839L280.255 16.5035L284.636 14.0984L289.086 11.574L293.559 8.93962L298.006 6.20822L302.369 3.39706L306.586 0.527794L310.587 -2.37354L314.302 -5.2767L317.657 -8.14774L320.582 -10.9498L323.007 -13.6441L324.872 -16.1913L326.127 -18.5529L326.733 -20.6927L326.664 -22.5786L325.913 -24.184L324.489 -25.4886L322.415 -26.4797L319.732 -27.1523L316.491 -27.5092L312.756 -27.5607L308.598 -27.3236L304.092 -26.8202L299.317 -26.0774L294.346 -25.1248L289.254 -23.9939L284.108 -22.7168L278.967 -21.3249L273.885 -19.8484L268.907 -18.3156L264.071 -16.7521L259.406 -15.181L254.935 -13.6227L250.676 -12.0946L246.638 -10.6117L242.829 -9.18648L239.251 -7.82906L235.905 -6.54784L232.785 -5.34946L229.889 -4.23919L227.21 -3.22119L224.74 -2.29874L222.472 -1.47446L220.397 -0.750565L218.509 -0.128983L216.799 0.388374L215.26 0.79953L213.886 1.10225L212.67 1.29388L211.608 1.37125L210.694 1.33047L209.926 1.16681L209.3 0.874489L208.817 0.446564L208.471 -0.122223L208.257 -0.833282L208.168 -1.68867L208.199 -2.69143L208.345 -3.8456L208.604 -5.15609L208.973 -6.62862L209.448 -8.26958L210.028 -10.086L210.712 -12.0853L211.496 -14.2754L212.38 -16.6641L213.36 -19.2593L214.434 -22.0684L215.598 -25.0981L216.847 -28.3537L218.175 -31.8392L219.574 -35.5562L221.036 -39.5033L222.547 -43.6757L224.095 -48.064L225.664 -52.654L227.233 -57.4253L228.781 -62.3508L230.283 -67.3962L231.712 -72.5195L233.039 -77.6707L234.232 -82.7922L235.259 -87.8193L236.089 -92.6815L236.691 -97.3038L237.037 -101.609L237.103 -105.521L236.869 -108.967L236.323 -111.88L235.459 -114.202L234.278 -115.889L232.79 -116.909L231.013 -117.249L228.971 -116.91L226.693 -115.91L224.216 -114.282L221.575 -112.073L218.811 -109.34L215.963 -106.148L213.069 -102.567L210.163 -98.671L207.277 -94.5317L204.44 -90.219L201.675 -85.7981L199 -81.3289L196.43 -76.8645L193.977 -72.4511L191.646 -68.1281L189.443 -63.9277L187.367 -59.8762L185.418 -55.9935L183.592 -52.295L181.886 -48.7911L180.293 -45.4886L178.808 -42.391L177.424 -39.4995L176.133 -36.813L174.929 -34.329L173.805 -32.0438L172.753 -29.9528L171.766 -28.0513L170.839 -26.3339L169.965 -24.7954L169.138 -23.4307L168.351 -22.235L167.6 -21.2039L166.878 -20.3332L166.182 -19.6195L165.505 -19.0597L164.843 -18.6516L164.192 -18.3933L163.546 -18.2838L162.902 -18.3225L162.254 -18.5096L161.597 -18.8459L160.928 -19.333L160.242 -19.9728L159.533 -20.7681L158.797 -21.7221L158.028 -22.8386L157.22 -24.122L156.369 -25.5768L155.468 -27.208L154.511 -29.021L153.491 -31.0208L152.402 -33.2126L151.237 -35.6011L149.989 -38.1905L148.65 -40.9838L147.214 -43.9829L145.674 -47.1877L144.022 -50.5961L142.254 -54.2027L140.365 -57.9989L138.35 -61.972L136.207 -66.1041L133.937 -70.3722L131.541 -74.7469L129.026 -79.1922L126.4 -83.6653L123.676 -88.1164L120.87 -92.4886L118.005 -96.7193L115.105 -100.74L112.201 -104.481L109.326 -107.867L106.517 -110.829L103.813 -113.296L101.252 -115.208L98.8746 -116.513L96.7159 -117.171L94.8087 -117.157L93.1801 -116.461L91.851 -115.089L90.8346 -113.066L90.1367 -110.429L89.7549 -107.23L89.6796 -103.532L89.8945 -99.4052L90.3776 -94.9246L91.1025 -90.1675L92.0395 -85.2101L93.1573 -80.1252L94.424 -74.9806L95.8078 -69.8373L97.2787 -64.7489L98.808 -59.7614L100.37 -54.9126L101.941 -50.2331L103.501 -45.7462L105.032 -41.4692L106.519 -37.4136L107.949 -33.5863L109.313 -29.9903L110.6 -26.6251L111.805 -23.4881L112.923 -20.5744L113.948 -17.8779L114.878 -15.3914L115.711 -13.1074L116.443 -11.018L117.072 -9.1151L117.598 -7.39123L118.018 -5.83907L118.329 -4.45191L118.53 -3.22372L118.616 -2.14916L118.585 -1.22382L118.432 -0.444115L118.15 0.192467L117.733 0.687416L117.175 1.04358L116.476 1.26793L115.632 1.36678L114.641 1.34533L113.499 1.20786L112.201 0.957848L110.742 0.598198L109.115 0.131325L107.312 -0.440697L105.328 -1.11594L103.153 -1.89251L100.781 -2.76835L98.2022 -3.74107L95.4104 -4.8077L92.3985 -5.96457L89.161 -7.20695L85.6939 -8.5289L81.9953 -9.9229L78.0665 -11.3797L73.9117 -12.8878L69.5401 -14.4337L64.9655 -16.001L60.2078 -17.5709L55.2934 -19.1214L50.2561 -20.6282L45.1373 -22.0642L39.9863 -23.4L34.8602 -24.6047L29.823 -25.6465L24.945 -26.4934L20.3008 -27.1147L15.9672 -27.4821L12.021 -27.571L8.53564 -27.3618L5.57846 -26.8408L3.20749 -26.0018L1.46878 -24.8459L0.394257 -23.3821L-0.00012207 -21.6272L0.285248 -19.605L1.23367 -17.3451L2.81308 -14.8819L4.97806 -12.253L7.672 -9.49751L10.8301 -6.65468L14.3824 -3.76244L18.2559 -0.856216L22.3785 2.03188L26.6799 4.87379L31.0944 7.64571L35.5618 10.3283L40.0284 12.9066L44.4473 15.3697L48.7788 17.7101L52.99 19.924L57.0543 22.0101L60.9509 23.9692L64.6646 25.8045L68.1843 27.5201L71.503 29.1216L74.6169 30.6151L77.5248 32.0072L80.2276 33.305L82.7276 34.5156L85.0285 35.6462L87.1347 36.7036L89.0512 37.6948L90.7831 38.6263L92.3356 39.5045L93.7139 40.3356L94.9229 41.1253L95.967 41.8792L96.8503 42.6028L97.5765 43.3012L98.1484 43.9793L98.5685 44.642L98.8387 45.294L98.96 45.94L98.9676 46.1452Z" fill="#23A094"/>
<path fill-rule="evenodd" clip-rule="evenodd" d="M125.472 228.811L125.307 229.651L124.817 230.501L124.021 231.37L122.946 232.266L121.638 233.197L120.154 234.165L118.567 235.172L116.967 236.212L115.456 237.278L114.146 238.357L113.15 239.428L112.575 240.472L112.511 241.463L113.018 242.377L114.124 243.193L115.811 243.895L118.027 244.476L120.68 244.934L123.658 245.278L126.832 245.524L130.072 245.694L133.254 245.812L136.268 245.907L139.017 246.006L141.422 246.139L143.414 246.333L144.933 246.62L145.924 247.03L146.324 247.598L146.062 248.367L145.042 249.389L143.136 250.731L140.166 252.485L135.872 254.778L131.205 257.311L137.365 255.881L141.848 254.966L145.031 254.474L147.175 254.34L148.465 254.524L149.034 254.996L148.983 255.738L148.392 256.736L147.329 257.977L145.857 259.449L144.041 261.134L141.954 263.011L139.678 265.047L137.306 267.202L134.943 269.422L132.701 271.647L130.693 273.808L129.026 275.834L127.788 277.661L127.042 279.233L126.818 280.511L127.111 281.479L127.882 282.141L129.064 282.521L130.569 282.661L132.301 282.614L134.16 282.441L136.054 282.202L137.902 281.956L139.636 281.756L141.202 281.648L142.56 281.671L143.683 281.857L144.557 282.23L145.176 282.806L145.543 283.596L145.671 284.602L145.58 285.818L145.301 287.231L144.872 288.814L144.343 290.532L143.771 292.334L143.225 294.158L142.777 295.93L142.505 297.566L142.483 298.979L142.777 300.085L143.435 300.809L144.486 301.099L145.929 300.927L147.739 300.296L149.863 299.241L152.229 297.825L154.755 296.129L157.351 294.251L159.933 292.291L162.425 290.346L164.761 288.508L166.888 286.857L168.766 285.467L170.362 284.401L171.652 283.72L172.61 283.486L173.214 283.766L173.432 284.642L173.224 286.221L172.531 288.645L171.269 292.111L169.313 296.902L168.587 299.754L172.186 295.004L174.882 291.659L176.888 289.426L178.353 288.104L179.385 287.55L180.064 287.665L180.452 288.371L180.599 289.611L180.548 291.331L180.34 293.481L180.013 296.004L179.609 298.836L179.172 301.895L178.745 305.087L178.377 308.302L178.112 311.419L177.993 314.314L178.054 316.865L178.319 318.97L178.798 320.552L179.487 321.568L180.368 322.017L181.412 321.933L182.582 321.384L183.838 320.462L185.14 319.271L186.452 317.922L187.744 316.518L188.991 315.156L190.179 313.917L191.295 312.868L192.336 312.062L193.303 311.537L194.199 311.32L195.032 311.424L195.812 311.854L196.549 312.6L197.257 313.643L197.95 314.951L198.64 316.476L199.341 318.155L200.067 319.911L200.829 321.649L201.633 323.262L202.486 324.637L203.386 325.659L204.329 326.225L205.304 326.251L206.297 325.684L207.291 324.512L208.267 322.762L209.208 320.5L210.1 317.825L210.934 314.858L211.703 311.731L212.41 308.573L213.058 305.508L213.657 302.643L214.221 300.073L214.763 297.876L215.301 296.12L215.856 294.869L216.449 294.184L217.105 294.135L217.856 294.809L218.74 296.319L219.805 298.821L221.118 302.535L222.771 307.777L223.636 308.055L223.382 302.447L223.333 298.417L223.467 295.629L223.77 293.848L224.235 292.907L224.858 292.685L225.639 293.087L226.578 294.04L227.674 295.476L228.925 297.329L230.324 299.532L231.858 302.004L233.509 304.654L235.248 307.379L237.039 310.062L238.838 312.58L240.596 314.811L242.262 316.645L243.789 317.99L245.136 318.789L246.277 319.019L247.199 318.696L247.905 317.872L248.414 316.628L248.754 315.062L248.966 313.281L249.091 311.391L249.174 309.491L249.257 307.665L249.38 305.985L249.578 304.505L249.878 303.265L250.307 302.293L250.883 301.604L251.619 301.202L252.524 301.082L253.601 301.227L254.844 301.614L256.242 302.206L257.774 302.956L259.407 303.805L261.099 304.683L262.795 305.508L264.432 306.194L265.939 306.649L267.242 306.789L268.272 306.539L268.97 305.846L269.295 304.686L269.23 303.066L268.783 301.023L267.989 298.625L266.904 295.96L265.601 293.128L264.161 290.233L262.669 287.374L261.206 284.638L259.849 282.101L258.666 279.822L257.717 277.851L257.06 276.228L256.75 274.987L256.844 274.161L257.409 273.79L258.528 273.922L260.309 274.623L262.898 275.988L266.499 278.15L271.407 281.308L270.402 279.42L266.843 275.511L264.406 272.627L262.872 270.54L262.091 269.09L261.957 268.161L262.393 267.665L263.342 267.536L264.757 267.716L266.595 268.156L268.812 268.808L271.356 269.622L274.165 270.546L277.162 271.52L280.256 272.482L283.343 273.367L286.308 274.108L289.036 274.645L291.419 274.927L293.366 274.921L294.815 274.609L295.738 273.997L296.142 273.108L296.069 271.983L295.589 270.673L294.792 269.234L293.776 267.725L292.643 266.197L291.487 264.696L290.396 263.258L289.44 261.91L288.68 260.671L288.162 259.551L287.919 258.554L287.973 257.678L288.337 256.918L289.011 256.262L289.984 255.698L291.235 255.207L292.728 254.77L294.415 254.364L296.23 253.964L298.092 253.543L299.906 253.074L301.563 252.531L302.951 251.892L303.96 251.139L304.493 250.262L304.475 249.26L303.867 248.142L302.666 246.925L300.912 245.636L298.68 244.304L296.075 242.96L293.22 241.634L290.243 240.352L287.273 239.134L284.425 237.993L281.804 236.938L279.498 235.969L277.583 235.085L276.127 234.277L275.194 233.538L274.851 232.855L275.177 232.214L276.271 231.599L278.267 230.991L281.347 230.368L285.772 229.698L291.918 228.943L287.52 228.153L282.595 227.462L279.119 226.827L276.802 226.217L275.437 225.606L274.878 224.975L275.017 224.307L275.77 223.587L277.066 222.803L278.842 221.944L281.031 221.002L283.561 219.975L286.347 218.861L289.291 217.666L292.279 216.402L295.187 215.088L297.886 213.747L300.249 212.407L302.165 211.101L303.548 209.859L304.346 208.707L304.549 207.667L304.185 206.749L303.319 205.957L302.04 205.283L300.456 204.712L298.68 204.222L296.823 203.789L294.983 203.385L293.248 202.984L291.686 202.559L290.353 202.088L289.289 201.549L288.518 200.924L288.055 200.198L287.903 199.36L288.053 198.403L288.487 197.322L289.174 196.119L290.073 194.804L291.129 193.392L292.273 191.908L293.423 190.384L294.487 188.864L295.365 187.397L295.957 186.04L296.168 184.85L295.922 183.88L295.167 183.176L293.884 182.767L292.09 182.664L289.837 182.858L287.208 183.319L284.306 184.001L281.246 184.847L278.142 185.791L275.103 186.769L272.226 187.715L269.59 188.57L267.263 189.279L265.299 189.792L263.744 190.06L262.642 190.035L262.037 189.663L261.982 188.88L262.547 187.607L263.828 185.738L265.957 183.128L269.13 179.576L273.309 175.055L267.903 178.586L263.923 181.04L261.037 182.642L259.017 183.543L257.701 183.848L256.969 183.631L256.733 182.945L256.921 181.833L257.474 180.328L258.336 178.464L259.451 176.278L260.759 173.817L262.196 171.137L263.687 168.308L265.153 165.415L266.509 162.552L267.672 159.822L268.566 157.329L269.128 155.164L269.317 153.404L269.115 152.095L268.533 151.255L267.603 150.868L266.38 150.89L264.93 151.254L263.327 151.876L261.642 152.667L259.942 153.537L258.285 154.404L256.717 155.192L255.274 155.84L253.979 156.296L252.848 156.522L251.888 156.489L251.099 156.177L250.474 155.58L250 154.697L249.661 153.54L249.434 152.133L249.29 150.511L249.198 148.725L249.12 146.839L249.013 144.936L248.834 143.109L248.539 141.463L248.088 140.105L247.447 139.138L246.595 138.648L245.523 138.699L244.239 139.317L242.766 140.493L241.139 142.179L239.405 144.295L237.614 146.734L235.815 149.378L234.055 152.103L232.373 154.789L230.799 157.328L229.355 159.626L228.056 161.598L226.91 163.175L225.921 164.288L225.09 164.874L224.416 164.859L223.901 164.159L223.546 162.661L223.357 160.216L223.345 156.612L223.531 151.551L223.389 147.785L221.603 153.602L220.193 157.763L219.056 160.623L218.121 162.43L217.332 163.356L216.649 163.527L216.039 163.036L215.475 161.958L214.934 160.357L214.395 158.293L213.84 155.834L213.254 153.054L212.622 150.041L211.935 146.9L211.186 143.749L210.373 140.717L209.498 137.935L208.571 135.53L207.604 133.607L206.614 132.246L205.619 131.486L204.636 131.328L203.682 131.729L202.767 132.616L201.899 133.891L201.08 135.441L200.306 137.151L199.569 138.912L198.861 140.625L198.169 142.206L197.479 143.589L196.777 144.721L196.051 145.565L195.286 146.096L194.471 146.305L193.596 146.189L192.652 145.76L191.635 145.039L190.542 144.063L189.377 142.878L188.147 141.546L186.867 140.147L185.558 138.769L184.249 137.516L182.974 136.497L181.772 135.818L180.684 135.577L179.748 135.85L178.995 136.684L178.448 138.089L178.116 140.034L177.992 142.453L178.056 145.251L178.279 148.311L178.619 151.508L179.032 154.72L179.472 157.833L179.891 160.746L180.246 163.375L180.497 165.651L180.602 167.513L180.522 168.911L180.216 169.794L179.636 170.104L178.724 169.773L177.407 168.709L175.588 166.784L173.131 163.82L169.848 159.556L168.517 158.855L170.728 164.145L172.196 167.998L173.059 170.729L173.415 172.559L173.327 173.647L172.843 174.107L171.994 174.028L170.807 173.483L169.306 172.533L167.515 171.239L165.463 169.665L163.188 167.878L160.74 165.957L158.179 163.991L155.578 162.076L153.021 160.312L150.594 158.797L148.384 157.619L146.468 156.848L144.904 156.528L143.727 156.672L142.945 157.263L142.54 158.254L142.468 159.578L142.668 161.152L143.068 162.89L143.591 164.706L144.162 166.523L144.712 168.274L145.179 169.904L145.51 171.374L145.664 172.655L145.609 173.729L145.32 174.588L144.782 175.231L143.989 175.667L142.944 175.911L141.658 175.983L140.155 175.913L138.47 175.738L136.651 175.501L134.764 175.253L132.884 175.052L131.101 174.959L129.513 175.033L128.218 175.331L127.308 175.9L126.857 176.769L126.913 177.949L127.495 179.431L128.581 181.182L130.121 183.151L132.031 185.277L134.21 187.489L136.547 189.718L138.928 191.899L141.245 193.978L143.402 195.91L145.312 197.659L146.901 199.201L148.102 200.517L148.85 201.593L149.081 202.418L148.719 202.978L147.671 203.256L145.816 203.228L142.988 202.855L138.954 202.084L133.379 200.83L134.171 201.972L138.957 204.473L142.316 206.383L144.538 207.845L145.824 208.96L146.317 209.803L146.119 210.431L145.309 210.887L143.952 211.209L142.104 211.43L139.824 211.579L137.177 211.686L134.238 211.779L131.098 211.886L127.863 212.037L124.654 212.256L121.6 212.567L118.829 212.988L116.463 213.529L114.6 214.193L113.305 214.974L112.608 215.859L112.496 216.828L112.917 217.857L113.789 218.923L115.012 220.001L116.471 221.073L118.054 222.123L119.655 223.141L121.181 224.121L122.553 225.063L123.707 225.97L124.596 226.847L125.186 227.702L125.455 228.544L125.472 228.811Z" fill="#FF90E8"/>
<path fill-rule="evenodd" clip-rule="evenodd" d="M102.188 48.9863L102.22 49.6245L102.316 50.261L102.475 50.8939L102.696 51.5215L102.978 52.1421L103.321 52.7541L103.721 53.3559L104.178 53.946L104.69 54.523L105.252 55.0857L105.865 55.6327L106.523 56.1631L107.225 56.6759L107.968 57.1703L108.747 57.6456L109.561 58.1012L110.406 58.5367L111.279 58.9517L112.176 59.346L113.093 59.7197L114.029 60.0726L114.98 60.405L115.942 60.7171L116.913 61.0093L117.889 61.2819L118.869 61.5355L119.85 61.7706L120.828 61.9879L121.803 62.1882L122.77 62.372L123.73 62.5404L124.679 62.6939L125.616 62.8336L126.539 62.9602L127.448 63.0747L128.34 63.1779L129.214 63.2708L130.07 63.3542L130.907 63.4291L131.724 63.4962L132.519 63.5566L133.294 63.6111L134.047 63.6605L134.777 63.7056L135.485 63.7473L136.171 63.7864L136.833 63.8237L137.473 63.8599L138.09 63.8959L138.685 63.9322L139.256 63.9697L139.805 64.0091L140.331 64.0511L140.836 64.0963L141.318 64.1455L141.778 64.1993L142.216 64.2584L142.633 64.3235L143.029 64.3953L143.404 64.4745L143.758 64.5617L144.091 64.6577L144.405 64.7632L144.697 64.8789L144.97 65.0058L145.223 65.1445L145.457 65.2959L145.67 65.461L145.864 65.6407L146.038 65.836L146.193 66.048L146.328 66.2778L146.443 66.5267L146.538 66.796L146.613 67.0872L146.667 67.4018L146.701 67.7415L146.713 68.1082L146.704 68.5038L146.673 68.9305L146.618 69.3908L146.54 69.8873L146.438 70.4229L146.31 71.0008L146.156 71.6246L145.973 72.2981L145.762 73.0257L145.52 73.8122L145.245 74.6629L144.936 75.584L144.591 76.582L144.206 77.6644L143.779 78.8397L143.307 80.1172L142.786 81.5078L142.213 83.0233L141.583 84.6775L140.892 86.4859L140.132 88.4662L139.298 90.6384L138.384 93.0257L137.379 95.6545L136.276 98.5555L135.063 101.764L134.797 103.457L137.071 100.684L139.122 98.1725L140.975 95.8939L142.655 93.8235L144.181 91.9397L145.571 90.2234L146.84 88.6583L148.001 87.2298L149.066 85.925L150.045 84.7327L150.947 83.6431L151.78 82.6471L152.55 81.737L153.264 80.9059L153.928 80.1476L154.546 79.4564L155.123 78.8275L155.663 78.2565L156.169 77.7394L156.644 77.2727L157.092 76.8532L157.515 76.478L157.915 76.1446L158.295 75.8507L158.656 75.5942L159.001 75.3733L159.331 75.1863L159.647 75.0318L159.952 74.9084L160.246 74.8149L160.53 74.7502L160.806 74.7134L161.076 74.7037L161.339 74.7203L161.597 74.7625L161.851 74.8297L162.102 74.9215L162.351 75.0373L162.598 75.1767L162.844 75.3395L163.09 75.5253L163.338 75.7338L163.587 75.9648L163.838 76.218L164.092 76.4934L164.35 76.7907L164.613 77.1098L164.881 77.4505L165.155 77.8127L165.435 78.1963L165.723 78.601L166.019 79.0267L166.324 79.4733L166.637 79.9405L166.961 80.4281L167.296 80.9357L167.642 81.4632L168 82.0101L168.371 82.576L168.755 83.1603L169.153 83.7627L169.566 84.3825L169.994 85.0189L170.437 85.6712L170.896 86.3385L171.372 87.0198L171.865 87.7142L172.375 88.4203L172.902 89.1371L173.448 89.863L174.011 90.5965L174.593 91.336L175.192 92.0798L175.81 92.8261L176.445 93.5728L177.098 94.3178L177.768 95.059L178.455 95.7939L179.158 96.5203L179.876 97.2356L180.608 97.9372L181.354 98.6225L182.112 99.2887L182.881 99.9331L183.66 100.553L184.447 101.145L185.24 101.707L186.038 102.237L186.839 102.73L187.641 103.186L188.441 103.6L189.239 103.971L190.031 104.297L190.814 104.575L191.588 104.804L192.35 104.981L193.097 105.106L193.826 105.176L194.537 105.191L195.226 105.15L195.891 105.053L196.53 104.899L197.142 104.688L197.724 104.421L198.275 104.098L198.793 103.721L199.278 103.29L199.726 102.807L200.139 102.274L200.514 101.692L200.852 101.064L201.151 100.391L201.412 99.6777L201.635 98.9251L201.819 98.1364L201.966 97.3145L202.075 96.4624L202.148 95.5832L202.185 94.6798L202.187 93.7554L202.156 92.813L202.093 91.8555L201.999 90.8861L201.876 89.9075L201.725 88.9226L201.549 87.934L201.348 86.9444L201.125 85.9561L200.881 84.9716L200.619 83.9929L200.339 83.0222L200.044 82.0613L199.736 81.1119L199.416 80.1756L199.086 79.2538L198.747 78.3478L198.402 77.4587L198.052 76.5875L197.698 75.7352L197.342 74.9023L196.985 74.0894L196.628 73.2971L196.274 72.5258L195.922 71.7756L195.574 71.0468L195.232 70.3394L194.895 69.6535L194.566 68.9889L194.244 68.3456L193.931 67.7232L193.628 67.1217L193.334 66.5405L193.052 65.9795L192.781 65.4381L192.522 64.9161L192.276 64.4129L192.043 63.9281L191.824 63.4612L191.619 63.0116L191.429 62.579L191.254 62.1627L191.095 61.7622L190.952 61.3769L190.826 61.0065L190.717 60.6502L190.625 60.3076L190.552 59.9781L190.497 59.6611L190.462 59.3563L190.446 59.0629L190.452 58.7805L190.478 58.5086L190.527 58.2467L190.599 57.9941L190.694 57.7505L190.814 57.5152L190.961 57.2878L191.134 57.0677L191.336 56.8544L191.567 56.6474L191.83 56.4461L192.127 56.2499L192.458 56.0582L192.826 55.8706L193.234 55.6862L193.683 55.5045L194.178 55.3248L194.72 55.1464L195.314 54.9683L195.963 54.7898L196.671 54.61L197.443 54.4278L198.285 54.2422L199.202 54.0518L200.201 53.8554L201.289 53.6513L202.475 53.438L203.767 53.2135L205.176 52.9756L206.714 52.7219L208.395 52.4496L210.233 52.1553L212.245 51.8355L214.451 51.486L216.873 51.1016L219.536 50.6768L222.471 50.2049L225.71 49.678L229.292 49.087L226.812 48.4753L223.468 47.9291L220.44 47.4406L217.693 47.0015L215.197 46.605L212.925 46.2449L210.854 45.9161L208.962 45.6141L207.234 45.3352L205.652 45.0759L204.203 44.8332L202.874 44.6047L201.656 44.388L200.537 44.1812L199.511 43.9826L198.569 43.7904L197.704 43.6034L196.91 43.4202L196.182 43.2398L195.514 43.061L194.904 42.8829L194.345 42.7046L193.836 42.5254L193.372 42.3444L192.952 42.161L192.571 41.9745L192.228 41.7842L191.921 41.5895L191.648 41.3899L191.406 41.1847L191.195 40.9735L191.013 40.7556L190.858 40.5306L190.73 40.2979L190.626 40.0569L190.547 39.8073L190.491 39.5484L190.458 39.2797L190.446 39.0007L190.455 38.7109L190.484 38.4098L190.532 38.0968L190.6 37.7713L190.685 37.4329L190.789 37.0811L190.91 36.7152L191.048 36.3347L191.202 35.9391L191.372 35.5279L191.557 35.1005L191.757 34.6564L191.972 34.1951L192.2 33.716L192.442 33.2187L192.697 32.7028L192.964 32.1676L193.243 31.6129L193.533 31.0382L193.833 30.4431L194.143 29.8274L194.462 29.1908L194.789 28.533L195.124 27.8539L195.465 27.1533L195.811 26.4314L196.161 25.688L196.515 24.9234L196.871 24.1377L197.228 23.3314L197.585 22.5048L197.939 21.6586L198.291 20.7933L198.638 19.9098L198.979 19.0091L199.311 18.0922L199.635 17.1604L199.947 16.215L200.247 15.2576L200.531 14.2897L200.8 13.3134L201.05 12.3305L201.279 11.3432L201.487 10.3538L201.672 9.36457L201.831 8.37819L201.963 7.39728L202.066 6.42461L202.139 5.46304L202.181 4.51551L202.189 3.58502L202.163 2.67461L202.102 1.78735L202.004 0.926291L201.87 0.09448L201.698 -0.705096L201.487 -1.46952L201.238 -2.19596L200.951 -2.88172L200.626 -3.52424L200.262 -4.12113L199.862 -4.67019L199.424 -5.16941L198.951 -5.61704L198.444 -6.01155L197.903 -6.35168L197.331 -6.63642L196.728 -6.86506L196.097 -7.03716L195.44 -7.15256L194.759 -7.21141L194.055 -7.21411L193.331 -7.16136L192.589 -7.0541L191.832 -6.89356L191.062 -6.68118L190.281 -6.41863L189.492 -6.1078L188.696 -5.75075L187.896 -5.34973L187.094 -4.90711L186.293 -4.42539L185.494 -3.90719L184.699 -3.35518L183.91 -2.77211L183.128 -2.16076L182.356 -1.52391L181.594 -0.864355L180.844 -0.18487L180.107 0.511818L179.385 1.22303L178.677 1.94616L177.985 2.67867L177.31 3.41811L176.651 4.16215L176.01 4.90854L175.387 5.65514L174.782 6.39994L174.194 7.14105L173.625 7.87667L173.074 8.60515L172.541 9.32495L172.025 10.0346L171.527 10.7329L171.046 11.4185L170.581 12.0904L170.133 12.7476L169.701 13.3891L169.283 14.0142L168.881 14.6222L168.492 15.2124L168.117 15.7842L167.755 16.3372L167.405 16.8709L167.067 17.3849L166.74 17.8789L166.422 18.3526L166.115 18.8058L165.817 19.2382L165.526 19.6496L165.244 20.0399L164.968 20.409L164.698 20.7565L164.434 21.0825L164.174 21.3868L163.919 21.6692L163.666 21.9295L163.417 22.1676L163.169 22.3833L162.922 22.5763L162.676 22.7464L162.429 22.8934L162.181 23.0168L161.931 23.1162L161.678 23.1913L161.422 23.2415L161.16 23.2663L160.893 23.2651L160.619 23.237L160.337 23.1813L160.046 23.0971L159.745 22.9834L159.433 22.8389L159.108 22.6624L158.768 22.4525L158.412 22.2075L158.038 21.9258L157.645 21.6052L157.229 21.2436L156.79 20.8384L156.323 20.3871L155.827 19.8864L155.299 19.3329L154.734 18.723L154.13 18.0522L153.481 17.3158L152.783 16.5085L152.032 15.6243L151.22 14.6565L150.341 13.5976L149.387 12.439L148.351 11.1712L147.221 9.78342L145.988 8.26329L144.638 6.59689L143.157 4.76836L141.528 2.7596L139.732 0.549869L137.747 -1.8846L135.548 -4.5712L134.652 -4.88426L135.902 -1.56971L137.039 1.42509L138.074 4.13709L139.016 6.59826L139.875 8.83632L140.657 10.8754L141.37 12.7365L142.019 14.438L142.61 15.9962L143.147 17.4252L143.634 18.7375L144.074 19.9443L144.472 21.0553L144.83 22.0793L145.151 23.0241L145.436 23.8966L145.688 24.703L145.909 25.4488L146.101 26.139L146.264 26.7782L146.4 27.3703L146.511 27.919L146.596 28.4276L146.658 28.8991L146.697 29.3363L146.713 29.7416L146.707 30.1172L146.68 30.4653L146.632 30.7877L146.564 31.0862L146.475 31.3623L146.367 31.6176L146.238 31.8533L146.09 32.0709L145.922 32.2714L145.734 32.4559L145.527 32.6255L145.3 32.7812L145.053 32.9239L144.787 33.0544L144.5 33.1736L144.193 33.2823L143.866 33.3813L143.519 33.4712L143.151 33.5528L142.762 33.6269L142.351 33.694L141.92 33.755L141.467 33.8104L140.991 33.861L140.494 33.9074L139.975 33.9503L139.433 33.9905L138.869 34.0285L138.282 34.0652L137.672 34.1011L137.04 34.1372L136.384 34.1741L135.706 34.2125L135.005 34.2533L134.282 34.2973L133.536 34.3452L132.768 34.398L131.979 34.4564L131.169 34.5213L130.339 34.5936L129.489 34.6742L128.62 34.764L127.734 34.8638L126.83 34.9746L125.911 35.0972L124.979 35.2327L124.033 35.3817L123.077 35.5452L122.112 35.724L121.139 35.919L120.162 36.1308L119.182 36.3602L118.201 36.6078L117.223 36.8743L116.25 37.1602L115.285 37.4659L114.33 37.7918L113.39 38.1382L112.466 38.5052L111.562 38.893L110.681 39.3014L109.827 39.7304L109.003 40.1796L108.212 40.6487L107.457 41.1371L106.742 41.6441L106.069 42.169L105.442 42.7109L104.863 43.2687L104.335 43.8412L103.861 44.4273L103.442 45.0255L103.081 45.6344L102.779 46.2525L102.538 46.8781L102.36 47.5095L102.244 48.145L102.192 48.7829L102.188 48.9863Z" fill="#B23386"/>
<path fill-rule="evenodd" clip-rule="evenodd" d="M98.9676 478.601L98.8934 479.246L98.6708 479.896L98.2986 480.555L97.7752 481.227L97.0985 481.919L96.2657 482.634L95.2732 483.377L94.1172 484.155L92.7933 484.972L91.2968 485.835L89.6226 486.749L87.7655 487.72L85.7203 488.756L83.4819 489.862L81.0457 491.047L78.4079 492.316L75.5655 493.677L72.5172 495.138L69.2635 496.704L65.8072 498.383L62.1543 500.179L58.3145 502.099L54.3016 504.144L50.1347 506.317L45.8383 508.618L41.4431 511.042L36.987 513.585L32.5144 516.236L28.0768 518.981L23.7324 521.803L19.5455 524.679L15.5848 527.583L11.9223 530.483L8.63086 533.346L5.78168 536.133L3.44165 538.807L1.6702 541.327L0.516632 543.656L0.0174866 545.757L0.194489 547.6L1.05331 549.159L2.58322 550.414L4.75714 551.355L7.53342 551.976L10.8575 552.284L14.6646 552.288L18.883 552.007L23.4367 551.464L28.2484 550.685L33.2428 549.702L38.3478 548.546L43.4975 547.248L48.6322 545.841L53.7004 544.354L58.6579 542.814L63.4688 541.248L68.1042 539.678L72.5422 538.123L76.7672 536.601L80.7687 535.127L84.5409 533.712L88.0817 532.366L91.392 531.098L94.4752 529.913L97.3364 528.817L99.982 527.814L102.419 526.907L104.656 526.099L106.7 525.391L108.56 524.786L110.242 524.285L111.754 523.891L113.103 523.606L114.294 523.432L115.332 523.374L116.223 523.434L116.968 523.617L117.571 523.931L118.032 524.381L118.356 524.972L118.55 525.706L118.62 526.585L118.57 527.611L118.405 528.79L118.129 530.126L117.743 531.625L117.251 533.293L116.654 535.138L115.955 537.167L115.154 539.389L114.255 541.81L113.26 544.439L112.171 547.282L110.993 550.348L109.731 553.64L108.391 557.162L106.981 560.916L105.511 564.899L103.993 569.107L102.44 573.528L100.87 578.149L99.3032 582.947L97.7607 587.894L96.2683 592.955L94.8535 598.086L93.5462 603.236L92.3774 608.347L91.3794 613.353L90.5836 618.182L90.0205 622.759L89.7176 627.007L89.6983 630.85L89.9811 634.215L90.5777 637.037L91.4928 639.26L92.7234 640.843L94.2585 641.755L96.0797 641.987L98.1616 641.541L100.473 640.438L102.98 638.714L105.642 636.418L108.422 633.607L111.28 630.348L114.179 626.712L117.084 622.773L119.963 618.601L122.79 614.267L125.542 609.834L128.201 605.363L130.753 600.903L133.187 596.502L135.498 592.197L137.681 588.018L139.737 583.992L141.666 580.138L143.472 576.47L145.16 572.998L146.735 569.728L148.204 566.663L149.573 563.804L150.849 561.15L152.04 558.698L153.152 556.444L154.193 554.384L155.17 552.512L156.088 550.823L156.954 549.313L157.775 547.975L158.556 546.806L159.302 545.801L160.019 544.955L160.712 544.266L161.386 543.731L162.046 543.347L162.696 543.112L163.341 543.026L163.986 543.089L164.635 543.299L165.293 543.66L165.964 544.171L166.654 544.835L167.367 545.656L168.108 546.635L168.883 547.778L169.697 549.088L170.555 550.571L171.465 552.231L172.432 554.073L173.462 556.103L174.563 558.326L175.74 560.746L177.003 563.368L178.356 566.194L179.809 569.226L181.366 572.463L183.036 575.904L184.823 579.541L186.732 583.367L188.768 587.366L190.931 591.522L193.221 595.809L195.636 600.198L198.169 604.65L200.812 609.123L203.55 613.566L206.367 617.92L209.24 622.122L212.143 626.103L215.044 629.792L217.911 633.116L220.706 636.003L223.39 638.386L225.924 640.204L228.269 641.409L230.39 641.961L232.255 641.838L233.837 641.033L235.117 639.556L236.082 637.432L236.73 634.702L237.062 631.419L237.09 627.648L236.83 623.46L236.307 618.93L235.546 614.136L234.578 609.153L233.435 604.055L232.147 598.906L230.748 593.768L229.266 588.693L227.729 583.725L226.164 578.902L224.594 574.251L223.037 569.797L221.512 565.555L220.034 561.535L218.613 557.744L217.262 554.185L215.987 550.857L214.795 547.756L213.692 544.877L212.682 542.214L211.767 539.761L210.951 537.508L210.235 535.449L209.621 533.575L209.112 531.879L208.71 530.354L208.416 528.992L208.233 527.789L208.165 526.738L208.215 525.836L208.389 525.08L208.692 524.466L209.131 523.993L209.711 523.658L210.434 523.454L211.301 523.375L212.315 523.415L213.482 523.571L214.805 523.839L216.291 524.215L217.945 524.699L219.776 525.288L221.79 525.979L223.996 526.772L226.401 527.663L229.013 528.651L231.839 529.732L234.886 530.903L238.16 532.159L241.664 533.493L245.4 534.897L249.365 536.363L253.555 537.878L257.96 539.429L262.565 540.998L267.35 542.566L272.286 544.111L277.339 545.609L282.467 547.031L287.618 548.348L292.734 549.529L297.751 550.542L302.597 551.355L307.197 551.937L311.474 552.262L315.351 552.304L318.757 552.046L321.624 551.475L323.897 550.585L325.532 549.379L326.499 547.868L326.785 546.069L326.392 544.007L325.341 541.712L323.665 539.22L321.411 536.568L318.639 533.796L315.413 530.943L311.805 528.046L307.887 525.141L303.731 522.258L299.408 519.426L294.981 516.667L290.51 514L286.048 511.439L281.641 508.996L277.326 506.675L273.137 504.482L269.098 502.416L265.23 500.477L261.546 498.661L258.058 496.964L254.772 495.38L251.691 493.903L248.816 492.526L246.145 491.243L243.677 490.046L241.408 488.927L239.332 487.881L237.445 486.899L235.742 485.977L234.218 485.106L232.867 484.282L231.684 483.499L230.666 482.75L229.808 482.031L229.107 481.336L228.559 480.661L228.163 480L227.917 479.349L227.819 478.704L227.869 478.059L228.068 477.41L228.417 476.753L228.916 476.083L229.568 475.395L230.376 474.684L231.343 473.946L232.472 473.174L233.769 472.363L235.238 471.508L236.883 470.603L238.711 469.641L240.726 468.616L242.933 467.521L245.337 466.35L247.943 465.095L250.753 463.748L253.768 462.304L256.989 460.755L260.414 459.095L264.036 457.317L267.847 455.418L271.833 453.393L275.977 451.24L280.255 448.959L284.636 446.554L289.086 444.03L293.559 441.396L298.006 438.664L302.369 435.853L306.586 432.984L310.587 430.082L314.302 427.179L317.657 424.308L320.582 421.506L323.007 418.812L324.872 416.265L326.127 413.903L326.733 411.763L326.664 409.877L325.913 408.272L324.489 406.967L322.415 405.976L319.732 405.304L316.491 404.947L312.756 404.895L308.598 405.132L304.092 405.636L299.317 406.379L294.346 407.331L289.254 408.462L284.108 409.739L278.967 411.131L273.885 412.608L268.907 414.14L264.071 415.704L259.406 417.275L254.935 418.833L250.676 420.361L246.638 421.844L242.829 423.269L239.251 424.627L235.905 425.908L232.785 427.106L229.889 428.217L227.21 429.235L224.74 430.157L222.472 430.981L220.397 431.705L218.509 432.327L216.799 432.844L215.26 433.255L213.886 433.558L212.67 433.75L211.608 433.827L210.694 433.786L209.926 433.623L209.3 433.33L208.817 432.902L208.471 432.334L208.257 431.623L208.168 430.767L208.199 429.765L208.345 428.61L208.604 427.3L208.973 425.827L209.448 424.186L210.028 422.37L210.712 420.371L211.496 418.181L212.38 415.792L213.36 413.197L214.434 410.388L215.598 407.358L216.847 404.102L218.175 400.617L219.574 396.9L221.036 392.953L222.547 388.78L224.095 384.392L225.664 379.802L227.233 375.031L228.781 370.105L230.283 365.06L231.712 359.936L233.039 354.785L234.232 349.664L235.259 344.637L236.089 339.774L236.691 335.152L237.037 330.847L237.103 326.935L236.869 323.489L236.323 320.576L235.459 318.254L234.278 316.567L232.79 315.547L231.013 315.207L228.971 315.546L226.693 316.546L224.216 318.174L221.575 320.383L218.811 323.116L215.963 326.308L213.069 329.889L210.163 333.785L207.277 337.924L204.44 342.237L201.675 346.658L199 351.127L196.43 355.591L193.977 360.005L191.646 364.328L189.443 368.528L187.367 372.58L185.418 376.462L183.592 380.161L181.886 383.665L180.293 386.967L178.808 390.065L177.424 392.956L176.133 395.643L174.929 398.127L173.805 400.412L172.753 402.503L171.766 404.405L170.839 406.122L169.965 407.661L169.138 409.025L168.351 410.221L167.6 411.252L166.878 412.123L166.182 412.836L165.505 413.396L164.843 413.804L164.192 414.063L163.546 414.172L162.902 414.133L162.254 413.946L161.597 413.61L160.928 413.123L160.242 412.483L159.533 411.688L158.797 410.734L158.028 409.617L157.22 408.334L156.369 406.879L155.468 405.248L154.511 403.435L153.491 401.435L152.402 399.243L151.237 396.855L149.989 394.265L148.65 391.472L147.214 388.473L145.674 385.268L144.022 381.86L142.254 378.253L140.365 374.457L138.35 370.484L136.207 366.352L133.937 362.084L131.541 357.709L129.026 353.264L126.4 348.791L123.676 344.34L120.87 339.967L118.005 335.737L115.105 331.715L112.201 327.975L109.326 324.588L106.517 321.627L103.813 319.16L101.252 317.248L98.8746 315.943L96.7159 315.285L94.8087 315.299L93.1801 315.995L91.851 317.367L90.8346 319.39L90.1367 322.027L89.7549 325.226L89.6796 328.924L89.8945 333.051L90.3776 337.531L91.1025 342.288L92.0395 347.246L93.1573 352.331L94.424 357.475L95.8078 362.619L97.2787 367.707L98.808 372.695L100.37 377.543L101.941 382.223L103.501 386.71L105.032 390.987L106.519 395.042L107.949 398.87L109.313 402.466L110.6 405.831L111.805 408.968L112.923 411.882L113.948 414.578L114.878 417.064L115.711 419.348L116.443 421.438L117.072 423.341L117.598 425.065L118.018 426.617L118.329 428.004L118.53 429.232L118.616 430.307L118.585 431.232L118.432 432.012L118.15 432.648L117.733 433.143L117.175 433.5L116.476 433.724L115.632 433.823L114.641 433.801L113.499 433.664L112.201 433.414L110.742 433.054L109.115 432.587L107.312 432.015L105.328 431.34L103.153 430.563L100.781 429.688L98.2022 428.715L95.4104 427.648L92.3985 426.491L89.161 425.249L85.6939 423.927L81.9953 422.533L78.0665 421.076L73.9117 419.568L69.5401 418.022L64.9655 416.455L60.2078 414.885L55.2934 413.335L50.2561 411.828L45.1373 410.392L39.9863 409.056L34.8602 407.851L29.823 406.809L24.945 405.963L20.3008 405.341L15.9672 404.974L12.021 404.885L8.53564 405.094L5.57846 405.615L3.20749 406.454L1.46878 407.61L0.394257 409.074L-0.00012207 410.829L0.285248 412.851L1.23367 415.111L2.81308 417.574L4.97806 420.203L7.672 422.958L10.8301 425.801L14.3824 428.693L18.2559 431.6L22.3785 434.488L26.6799 437.33L31.0944 440.102L35.5618 442.784L40.0284 445.363L44.4473 447.826L48.7788 450.166L52.99 452.38L57.0543 454.466L60.9509 456.425L64.6646 458.26L68.1843 459.976L71.503 461.578L74.6169 463.071L77.5248 464.463L80.2276 465.761L82.7276 466.972L85.0285 468.102L87.1347 469.16L89.0512 470.151L90.7831 471.082L92.3356 471.96L93.7139 472.792L94.9229 473.581L95.967 474.335L96.8503 475.059L97.5765 475.757L98.1484 476.435L98.5685 477.098L98.8387 477.75L98.96 478.396L98.9676 478.601Z" fill="#23A094"/>
<path fill-rule="evenodd" clip-rule="evenodd" d="M125.472 661.267L125.307 662.107L124.817 662.956L124.021 663.826L122.946 664.722L121.638 665.653L120.154 666.621L118.567 667.627L116.967 668.668L115.456 669.734L114.146 670.812L113.15 671.884L112.575 672.928L112.511 673.918L113.018 674.832L114.124 675.649L115.811 676.351L118.027 676.931L120.68 677.39L123.658 677.734L126.832 677.98L130.072 678.15L133.254 678.268L136.268 678.363L139.017 678.462L141.422 678.594L143.414 678.789L144.933 679.076L145.924 679.486L146.324 680.054L146.062 680.823L145.042 681.845L143.136 683.187L140.166 684.941L135.872 687.234L131.205 689.767L137.365 688.336L141.848 687.422L145.031 686.929L147.175 686.796L148.465 686.98L149.034 687.452L148.983 688.194L148.392 689.192L147.329 690.433L145.857 691.904L144.041 693.59L141.954 695.467L139.678 697.503L137.306 699.658L134.943 701.878L132.701 704.103L130.693 706.263L129.026 708.29L127.788 710.116L127.042 711.688L126.818 712.967L127.111 713.935L127.882 714.597L129.064 714.977L130.569 715.117L132.301 715.07L134.16 714.897L136.054 714.658L137.902 714.412L139.636 714.212L141.202 714.104L142.56 714.127L143.683 714.313L144.557 714.686L145.176 715.262L145.543 716.052L145.671 717.058L145.58 718.274L145.301 719.686L144.872 721.27L144.343 722.988L143.771 724.79L143.225 726.614L142.777 728.386L142.505 730.022L142.483 731.435L142.777 732.54L143.435 733.265L144.486 733.555L145.929 733.382L147.739 732.752L149.863 731.697L152.229 730.281L154.755 728.585L157.351 726.707L159.933 724.746L162.425 722.802L164.761 720.963L166.888 719.313L168.766 717.923L170.362 716.857L171.652 716.176L172.61 715.941L173.214 716.221L173.432 717.098L173.224 718.677L172.531 721.101L171.269 724.567L169.313 729.357L168.587 732.21L172.186 727.46L174.882 724.115L176.888 721.882L178.353 720.559L179.385 720.006L180.064 720.12L180.452 720.827L180.599 722.067L180.548 723.787L180.34 725.937L180.013 728.46L179.609 731.291L179.172 734.35L178.745 737.542L178.377 740.758L178.112 743.875L177.993 746.77L178.054 749.321L178.319 751.426L178.798 753.008L179.487 754.024L180.368 754.473L181.412 754.389L182.582 753.84L183.838 752.917L185.14 751.727L186.452 750.378L187.744 748.974L188.991 747.612L190.179 746.373L191.295 745.324L192.336 744.518L193.303 743.993L194.199 743.776L195.032 743.88L195.812 744.31L196.549 745.056L197.257 746.099L197.95 747.407L198.64 748.932L199.341 750.611L200.067 752.367L200.829 754.105L201.633 755.718L202.486 757.093L203.386 758.115L204.329 758.68L205.304 758.706L206.297 758.14L207.291 756.968L208.267 755.218L209.208 752.956L210.1 750.281L210.934 747.314L211.703 744.186L212.41 741.029L213.058 737.963L213.657 735.099L214.221 732.529L214.763 730.332L215.301 728.576L215.856 727.325L216.449 726.64L217.105 726.591L217.856 727.265L218.74 728.774L219.805 731.276L221.118 734.99L222.771 740.233L223.636 740.511L223.382 734.902L223.333 730.873L223.467 728.084L223.77 726.303L224.235 725.363L224.858 725.14L225.639 725.543L226.578 726.496L227.674 727.931L228.925 729.785L230.324 731.988L231.858 734.46L233.509 737.11L235.248 739.835L237.039 742.518L238.838 745.036L240.596 747.267L242.262 749.101L243.789 750.446L245.136 751.245L246.277 751.474L247.199 751.151L247.905 750.328L248.414 749.084L248.754 747.518L248.966 745.737L249.091 743.847L249.174 741.947L249.257 740.121L249.38 738.441L249.578 736.96L249.878 735.721L250.307 734.749L250.883 734.06L251.619 733.658L252.524 733.537L253.601 733.683L254.844 734.07L256.242 734.662L257.774 735.412L259.407 736.261L261.099 737.139L262.795 737.964L264.432 738.65L265.939 739.105L267.242 739.245L268.272 738.994L268.97 738.302L269.295 737.142L269.23 735.521L268.783 733.478L267.989 731.08L266.904 728.415L265.601 725.584L264.161 722.689L262.669 719.83L261.206 717.094L259.849 714.556L258.666 712.278L257.717 710.307L257.06 708.684L256.75 707.443L256.844 706.617L257.409 706.246L258.528 706.378L260.309 707.079L262.898 708.444L266.499 710.606L271.407 713.764L270.402 711.876L266.843 707.967L264.406 705.083L262.872 702.996L262.091 701.546L261.957 700.617L262.393 700.121L263.342 699.992L264.757 700.172L266.595 700.612L268.812 701.264L271.356 702.078L274.165 703.002L277.162 703.976L280.256 704.938L283.343 705.822L286.308 706.563L289.036 707.1L291.419 707.383L293.366 707.377L294.815 707.065L295.738 706.453L296.142 705.564L296.069 704.438L295.589 703.128L294.792 701.69L293.776 700.181L292.643 698.653L291.487 697.152L290.396 695.714L289.44 694.366L288.68 693.127L288.162 692.006L287.919 691.009L287.973 690.134L288.337 689.374L289.011 688.718L289.984 688.154L291.235 687.663L292.728 687.226L294.415 686.82L296.23 686.42L298.092 685.999L299.906 685.53L301.563 684.987L302.951 684.348L303.96 683.595L304.493 682.717L304.475 681.715L303.867 680.597L302.666 679.381L300.912 678.092L298.68 676.76L296.075 675.416L293.22 674.09L290.243 672.808L287.273 671.59L284.425 670.449L281.804 669.394L279.498 668.425L277.583 667.54L276.127 666.733L275.194 665.994L274.851 665.311L275.177 664.67L276.271 664.055L278.267 663.447L281.347 662.823L285.772 662.154L291.918 661.399L287.52 660.609L282.595 659.917L279.119 659.283L276.802 658.672L275.437 658.062L274.878 657.431L275.017 656.763L275.77 656.043L277.066 655.259L278.842 654.399L281.031 653.458L283.561 652.43L286.347 651.316L289.291 650.122L292.279 648.858L295.187 647.544L297.886 646.203L300.249 644.863L302.165 643.557L303.548 642.314L304.346 641.163L304.549 640.122L304.185 639.205L303.319 638.413L302.04 637.739L300.456 637.168L298.68 636.678L296.823 636.245L294.983 635.841L293.248 635.44L291.686 635.015L290.353 634.544L289.289 634.005L288.518 633.38L288.055 632.654L287.903 631.816L288.053 630.858L288.487 629.777L289.174 628.575L290.073 627.26L291.129 625.848L292.273 624.364L293.423 622.84L294.487 621.319L295.365 619.853L295.957 618.495L296.168 617.305L295.922 616.336L295.167 615.632L293.884 615.223L292.09 615.12L289.837 615.314L287.208 615.775L284.306 616.457L281.246 617.303L278.142 618.247L275.103 619.225L272.226 620.171L269.59 621.026L267.263 621.735L265.299 622.248L263.744 622.516L262.642 622.491L262.037 622.119L261.982 621.336L262.547 620.063L263.828 618.194L265.957 615.584L269.13 612.032L273.309 607.511L267.903 611.041L263.923 613.496L261.037 615.098L259.017 615.998L257.701 616.303L256.969 616.086L256.733 615.401L256.921 614.289L257.474 612.783L258.336 610.919L259.451 608.734L260.759 606.273L262.196 603.593L263.687 600.764L265.153 597.87L266.509 595.007L267.672 592.278L268.566 589.785L269.128 587.62L269.317 585.859L269.115 584.55L268.533 583.71L267.603 583.324L266.38 583.346L264.93 583.71L263.327 584.332L261.642 585.123L259.942 585.993L258.285 586.859L256.717 587.648L255.274 588.296L253.979 588.752L252.848 588.978L251.888 588.945L251.099 588.633L250.474 588.036L250 587.153L249.661 585.996L249.434 584.589L249.29 582.967L249.198 581.18L249.12 579.295L249.013 577.392L248.834 575.565L248.539 573.919L248.088 572.561L247.447 571.594L246.595 571.104L245.523 571.154L244.239 571.772L242.766 572.948L241.139 574.635L239.405 576.751L237.614 579.19L235.815 581.834L234.055 584.559L232.373 587.245L230.799 589.784L229.355 592.082L228.056 594.054L226.91 595.63L225.921 596.744L225.09 597.329L224.416 597.315L223.901 596.615L223.546 595.117L223.357 592.671L223.345 589.068L223.531 584.007L223.389 580.241L221.603 586.058L220.193 590.219L219.056 593.079L218.121 594.886L217.332 595.812L216.649 595.983L216.039 595.492L215.475 594.414L214.934 592.812L214.395 590.749L213.84 588.29L213.254 585.51L212.622 582.497L211.935 579.356L211.186 576.205L210.373 573.173L209.498 570.391L208.571 567.985L207.604 566.063L206.614 564.702L205.619 563.942L204.636 563.783L203.682 564.185L202.767 565.072L201.899 566.347L201.08 567.897L200.306 569.607L199.569 571.368L198.861 573.081L198.169 574.662L197.479 576.045L196.777 577.177L196.051 578.02L195.286 578.552L194.471 578.76L193.596 578.645L192.652 578.215L191.635 577.495L190.542 576.519L189.377 575.333L188.147 574.002L186.867 572.602L185.558 571.225L184.249 569.972L182.974 568.952L181.772 568.274L180.684 568.033L179.748 568.306L178.995 569.14L178.448 570.545L178.116 572.49L177.992 574.909L178.056 577.707L178.279 580.767L178.619 583.964L179.032 587.176L179.472 590.289L179.891 593.202L180.246 595.831L180.497 598.106L180.602 599.969L180.522 601.367L180.216 602.25L179.636 602.56L178.724 602.229L177.407 601.164L175.588 599.24L173.131 596.276L169.848 592.012L168.517 591.311L170.728 596.601L172.196 600.454L173.059 603.185L173.415 605.015L173.327 606.103L172.843 606.563L171.994 606.484L170.807 605.939L169.306 604.989L167.515 603.695L165.463 602.12L163.188 600.334L160.74 598.413L158.179 596.447L155.578 594.532L153.021 592.768L150.594 591.252L148.384 590.075L146.468 589.304L144.904 588.984L143.727 589.128L142.945 589.718L142.54 590.71L142.468 592.033L142.668 593.608L143.068 595.346L143.591 597.162L144.162 598.979L144.712 600.729L145.179 602.36L145.51 603.83L145.664 605.111L145.609 606.185L145.32 607.044L144.782 607.687L143.989 608.123L142.944 608.366L141.658 608.439L140.155 608.369L138.47 608.193L136.651 607.957L134.764 607.709L132.884 607.508L131.101 607.415L129.513 607.489L128.218 607.787L127.308 608.356L126.857 609.224L126.913 610.405L127.495 611.887L128.581 613.638L130.121 615.607L132.031 617.733L134.21 619.944L136.547 622.173L138.928 624.355L141.245 626.434L143.402 628.366L145.312 630.115L146.901 631.657L148.102 632.973L148.85 634.049L149.081 634.874L148.719 635.434L147.671 635.712L145.816 635.684L142.988 635.311L138.954 634.54L133.379 633.286L134.171 634.428L138.957 636.929L142.316 638.838L144.538 640.3L145.824 641.416L146.317 642.259L146.119 642.886L145.309 643.343L143.952 643.665L142.104 643.886L139.824 644.035L137.177 644.142L134.238 644.235L131.098 644.342L127.863 644.493L124.654 644.712L121.6 645.023L118.829 645.444L116.463 645.985L114.6 646.649L113.305 647.43L112.608 648.315L112.496 649.284L112.917 650.313L113.789 651.379L115.012 652.457L116.471 653.529L118.054 654.579L119.655 655.596L121.181 656.577L122.553 657.519L123.707 658.426L124.596 659.303L125.186 660.158L125.455 661L125.472 661.267Z" fill="#FF90E8"/>
<path fill-rule="evenodd" clip-rule="evenodd" d="M102.188 481.442L102.22 482.08L102.316 482.717L102.475 483.35L102.696 483.977L102.978 484.598L103.321 485.21L103.721 485.812L104.178 486.402L104.69 486.979L105.252 487.542L105.865 488.089L106.523 488.619L107.225 489.132L107.968 489.626L108.747 490.102L109.561 490.557L110.406 490.993L111.279 491.408L112.176 491.802L113.093 492.176L114.029 492.529L114.98 492.861L115.942 493.173L116.913 493.465L117.889 493.738L118.869 493.991L119.85 494.227L120.828 494.444L121.803 494.644L122.77 494.828L123.73 494.996L124.679 495.15L125.616 495.29L126.539 495.416L127.448 495.531L128.34 495.634L129.214 495.727L130.07 495.81L130.907 495.885L131.724 495.952L132.519 496.013L133.294 496.067L134.047 496.116L134.777 496.162L135.485 496.203L136.171 496.242L136.833 496.28L137.473 496.316L138.09 496.352L138.685 496.388L139.256 496.426L139.805 496.465L140.331 496.507L140.836 496.552L141.318 496.601L141.778 496.655L142.216 496.714L142.633 496.779L143.029 496.851L143.404 496.93L143.758 497.018L144.091 497.114L144.405 497.219L144.697 497.335L144.97 497.462L145.223 497.6L145.457 497.752L145.67 497.917L145.864 498.097L146.038 498.292L146.193 498.504L146.328 498.734L146.443 498.983L146.538 499.252L146.613 499.543L146.667 499.858L146.701 500.197L146.713 500.564L146.704 500.96L146.673 501.386L146.618 501.847L146.54 502.343L146.438 502.879L146.31 503.457L146.156 504.081L145.973 504.754L145.762 505.482L145.52 506.268L145.245 507.119L144.936 508.04L144.591 509.038L144.206 510.12L143.779 511.296L143.307 512.573L142.786 513.964L142.213 515.479L141.583 517.133L140.892 518.942L140.132 520.922L139.298 523.094L138.384 525.482L137.379 528.11L136.276 531.011L135.063 534.22L134.797 535.913L137.071 533.14L139.122 530.628L140.975 528.35L142.655 526.279L144.181 524.396L145.571 522.679L146.84 521.114L148.001 519.686L149.066 518.381L150.045 517.189L150.947 516.099L151.78 515.103L152.55 514.193L153.264 513.362L153.928 512.604L154.546 511.912L155.123 511.283L155.663 510.712L156.169 510.195L156.644 509.729L157.092 509.309L157.515 508.934L157.915 508.6L158.295 508.307L158.656 508.05L159.001 507.829L159.331 507.642L159.647 507.488L159.952 507.364L160.246 507.271L160.53 507.206L160.806 507.169L161.076 507.16L161.339 507.176L161.597 507.218L161.851 507.286L162.102 507.377L162.351 507.493L162.598 507.633L162.844 507.795L163.09 507.981L163.338 508.19L163.587 508.421L163.838 508.674L164.092 508.949L164.35 509.247L164.613 509.566L164.881 509.906L165.155 510.269L165.435 510.652L165.723 511.057L166.019 511.483L166.324 511.929L166.637 512.396L166.961 512.884L167.296 513.392L167.642 513.919L168 514.466L168.371 515.032L168.755 515.616L169.153 516.219L169.566 516.838L169.994 517.475L170.437 518.127L170.896 518.794L171.372 519.476L171.865 520.17L172.375 520.876L172.902 521.593L173.448 522.319L174.011 523.052L174.593 523.792L175.192 524.536L175.81 525.282L176.445 526.029L177.098 526.774L177.768 527.515L178.455 528.25L179.158 528.976L179.876 529.692L180.608 530.393L181.354 531.078L182.112 531.745L182.881 532.389L183.66 533.009L184.447 533.601L185.24 534.163L186.038 534.693L186.839 535.186L187.641 535.642L188.441 536.056L189.239 536.427L190.031 536.753L190.814 537.031L191.588 537.26L192.35 537.437L193.097 537.562L193.826 537.632L194.537 537.647L195.226 537.606L195.891 537.509L196.53 537.354L197.142 537.144L197.724 536.877L198.275 536.554L198.793 536.177L199.278 535.746L199.726 535.263L200.139 534.73L200.514 534.148L200.852 533.52L201.151 532.847L201.412 532.134L201.635 531.381L201.819 530.592L201.966 529.77L202.075 528.918L202.148 528.039L202.185 527.136L202.187 526.211L202.156 525.269L202.093 524.311L201.999 523.342L201.876 522.363L201.725 521.379L201.549 520.39L201.348 519.4L201.125 518.412L200.881 517.428L200.619 516.449L200.339 515.478L200.044 514.517L199.736 513.568L199.416 512.631L199.086 511.71L198.747 510.804L198.402 509.915L198.052 509.043L197.698 508.191L197.342 507.358L196.985 506.545L196.628 505.753L196.274 504.982L195.922 504.232L195.574 503.503L195.232 502.795L194.895 502.109L194.566 501.445L194.244 500.802L193.931 500.179L193.628 499.578L193.334 498.996L193.052 498.435L192.781 497.894L192.522 497.372L192.276 496.869L192.043 496.384L191.824 495.917L191.619 495.468L191.429 495.035L191.254 494.619L191.095 494.218L190.952 493.833L190.826 493.462L190.717 493.106L190.625 492.763L190.552 492.434L190.497 492.117L190.462 491.812L190.446 491.519L190.452 491.236L190.478 490.965L190.527 490.703L190.599 490.45L190.694 490.206L190.814 489.971L190.961 489.744L191.134 489.524L191.336 489.31L191.567 489.103L191.83 488.902L192.127 488.706L192.458 488.514L192.826 488.326L193.234 488.142L193.683 487.96L194.178 487.781L194.72 487.602L195.314 487.424L195.963 487.246L196.671 487.066L197.443 486.884L198.285 486.698L199.202 486.508L200.201 486.311L201.289 486.107L202.475 485.894L203.767 485.669L205.176 485.432L206.714 485.178L208.395 484.905L210.233 484.611L212.245 484.291L214.451 483.942L216.873 483.558L219.536 483.133L222.471 482.661L225.71 482.134L229.292 481.543L226.812 480.931L223.468 480.385L220.44 479.897L217.693 479.457L215.197 479.061L212.925 478.701L210.854 478.372L208.962 478.07L207.234 477.791L205.652 477.532L204.203 477.289L202.874 477.061L201.656 476.844L200.537 476.637L199.511 476.438L198.569 476.246L197.704 476.059L196.91 475.876L196.182 475.696L195.514 475.517L194.904 475.339L194.345 475.161L193.836 474.981L193.372 474.8L192.952 474.617L192.571 474.43L192.228 474.24L191.921 474.045L191.648 473.846L191.406 473.641L191.195 473.429L191.013 473.212L190.858 472.987L190.73 472.754L190.626 472.513L190.547 472.263L190.491 472.004L190.458 471.736L190.446 471.457L190.455 471.167L190.484 470.866L190.532 470.553L190.6 470.227L190.685 469.889L190.789 469.537L190.91 469.171L191.048 468.791L191.202 468.395L191.372 467.984L191.557 467.556L191.757 467.112L191.972 466.651L192.2 466.172L192.442 465.675L192.697 465.159L192.964 464.624L193.243 464.069L193.533 463.494L193.833 462.899L194.143 462.283L194.462 461.647L194.789 460.989L195.124 460.31L195.465 459.609L195.811 458.887L196.161 458.144L196.515 457.379L196.871 456.594L197.228 455.787L197.585 454.961L197.939 454.114L198.291 453.249L198.638 452.366L198.979 451.465L199.311 450.548L199.635 449.616L199.947 448.671L200.247 447.713L200.531 446.746L200.8 445.769L201.05 444.786L201.279 443.799L201.487 442.81L201.672 441.82L201.831 440.834L201.963 439.853L202.066 438.881L202.139 437.919L202.181 436.971L202.189 436.041L202.163 435.131L202.102 434.243L202.004 433.382L201.87 432.55L201.698 431.751L201.487 430.986L201.238 430.26L200.951 429.574L200.626 428.932L200.262 428.335L199.862 427.786L199.424 427.287L198.951 426.839L198.444 426.444L197.903 426.104L197.331 425.82L196.728 425.591L196.097 425.419L195.44 425.303L194.759 425.245L194.055 425.242L193.331 425.295L192.589 425.402L191.832 425.562L191.062 425.775L190.281 426.037L189.492 426.348L188.696 426.705L187.896 427.106L187.094 427.549L186.293 428.031L185.494 428.549L184.699 429.101L183.91 429.684L183.128 430.295L182.356 430.932L181.594 431.592L180.844 432.271L180.107 432.968L179.385 433.679L178.677 434.402L177.985 435.135L177.31 435.874L176.651 436.618L176.01 437.364L175.387 438.111L174.782 438.856L174.194 439.597L173.625 440.333L173.074 441.061L172.541 441.781L172.025 442.491L171.527 443.189L171.046 443.874L170.581 444.546L170.133 445.204L169.701 445.845L169.283 446.47L168.881 447.078L168.492 447.668L168.117 448.24L167.755 448.793L167.405 449.327L167.067 449.841L166.74 450.335L166.422 450.809L166.115 451.262L165.817 451.694L165.526 452.106L165.244 452.496L164.968 452.865L164.698 453.212L164.434 453.538L164.174 453.843L163.919 454.125L163.666 454.385L163.417 454.624L163.169 454.839L162.922 455.032L162.676 455.202L162.429 455.349L162.181 455.473L161.931 455.572L161.678 455.647L161.422 455.697L161.16 455.722L160.893 455.721L160.619 455.693L160.337 455.637L160.046 455.553L159.745 455.439L159.433 455.295L159.108 455.118L158.768 454.908L158.412 454.663L158.038 454.382L157.645 454.061L157.229 453.699L156.79 453.294L156.323 452.843L155.827 452.342L155.299 451.789L154.734 451.179L154.13 450.508L153.481 449.772L152.783 448.964L152.032 448.08L151.22 447.112L150.341 446.053L149.387 444.895L148.351 443.627L147.221 442.239L145.988 440.719L144.638 439.053L143.157 437.224L141.528 435.216L139.732 433.006L137.747 430.571L135.548 427.885L134.652 427.572L135.902 430.886L137.039 433.881L138.074 436.593L139.016 439.054L139.875 441.292L140.657 443.331L141.37 445.192L142.019 446.894L142.61 448.452L143.147 449.881L143.634 451.193L144.074 452.4L144.472 453.511L144.83 454.535L145.151 455.48L145.436 456.353L145.688 457.159L145.909 457.905L146.101 458.595L146.264 459.234L146.4 459.826L146.511 460.375L146.596 460.884L146.658 461.355L146.697 461.792L146.713 462.198L146.707 462.573L146.68 462.921L146.632 463.244L146.564 463.542L146.475 463.818L146.367 464.073L146.238 464.309L146.09 464.527L145.922 464.727L145.734 464.912L145.527 465.081L145.3 465.237L145.053 465.38L144.787 465.51L144.5 465.63L144.193 465.738L143.866 465.837L143.519 465.927L143.151 466.009L142.762 466.083L142.351 466.15L141.92 466.211L141.467 466.266L140.991 466.317L140.494 466.363L139.975 466.406L139.433 466.446L138.869 466.484L138.282 466.521L137.672 466.557L137.04 466.593L136.384 466.63L135.706 466.668L135.005 466.709L134.282 466.753L133.536 466.801L132.768 466.854L131.979 466.912L131.169 466.977L130.339 467.05L129.489 467.13L128.62 467.22L127.734 467.32L126.83 467.431L125.911 467.553L124.979 467.689L124.033 467.838L123.077 468.001L122.112 468.18L121.139 468.375L120.162 468.587L119.182 468.816L118.201 469.064L117.223 469.33L116.25 469.616L115.285 469.922L114.33 470.248L113.39 470.594L112.466 470.961L111.562 471.349L110.681 471.757L109.827 472.186L109.003 472.636L108.212 473.105L107.457 473.593L106.742 474.1L106.069 474.625L105.442 475.167L104.863 475.725L104.335 476.297L103.861 476.883L103.442 477.481L103.081 478.09L102.779 478.708L102.538 479.334L102.36 479.965L102.244 480.601L102.192 481.239L102.188 481.442Z" fill="#B23386"/>
</g>
<defs>
<clipPath id="clip0_54001_26320">
<rect width="124" height="770" fill="white"/>
</clipPath>
</defs>
</svg>
